<svg width="1076" height="147" viewBox="0 0 1076 147" fill="none" xmlns="http://www.w3.org/2000/svg">
<path d="M8.64 10.8838C11.74 10.8838 14.12 11.4338 15.78 12.5338C17.44 13.6138 18.27 15.3938 18.27 17.8738C18.27 20.3738 17.43 22.1838 15.75 23.3038C14.07 24.4038 11.67 24.9538 8.55 24.9538H7.08V31.9138H2.4V11.4238C3.42 11.2238 4.5 11.0838 5.64 11.0038C6.78 10.9238 7.78 10.8838 8.64 10.8838ZM8.94 14.8738C8.6 14.8738 8.26 14.8838 7.92 14.9038C7.6 14.9238 7.32 14.9438 7.08 14.9638V20.9638H8.55C10.17 20.9638 11.39 20.7438 12.21 20.3038C13.03 19.8638 13.44 19.0438 13.44 17.8438C13.44 17.2638 13.33 16.7838 13.11 16.4038C12.91 16.0238 12.61 15.7238 12.21 15.5038C11.83 15.2638 11.36 15.1038 10.8 15.0238C10.24 14.9238 9.62 14.8738 8.94 14.8738ZM30.9166 20.0938C30.5166 19.9938 30.0466 19.8938 29.5066 19.7938C28.9666 19.6738 28.3866 19.6138 27.7666 19.6138C27.4866 19.6138 27.1466 19.6438 26.7466 19.7038C26.3666 19.7438 26.0766 19.7938 25.8766 19.8538V31.9138H21.4066V16.9738C22.2066 16.6938 23.1466 16.4338 24.2266 16.1938C25.3266 15.9338 26.5466 15.8038 27.8866 15.8038C28.1266 15.8038 28.4166 15.8238 28.7566 15.8638C29.0966 15.8838 29.4366 15.9238 29.7766 15.9838C30.1166 16.0238 30.4566 16.0838 30.7966 16.1638C31.1366 16.2238 31.4266 16.3038 31.6666 16.4038L30.9166 20.0938ZM48.5299 23.9938C48.5299 25.2338 48.3499 26.3738 47.9899 27.4138C47.6299 28.4338 47.1099 29.3138 46.4299 30.0538C45.7499 30.7738 44.9299 31.3338 43.9699 31.7338C43.0299 32.1338 41.9699 32.3338 40.7899 32.3338C39.6299 32.3338 38.5699 32.1338 37.6099 31.7338C36.6699 31.3338 35.8599 30.7738 35.1799 30.0538C34.4999 29.3138 33.9699 28.4338 33.5899 27.4138C33.2099 26.3738 33.0199 25.2338 33.0199 23.9938C33.0199 22.7538 33.2099 21.6238 33.5899 20.6038C33.9899 19.5838 34.5299 18.7138 35.2099 17.9938C35.9099 17.2738 36.7299 16.7138 37.6699 16.3138C38.6299 15.9138 39.6699 15.7138 40.7899 15.7138C41.9299 15.7138 42.9699 15.9138 43.9099 16.3138C44.8699 16.7138 45.6899 17.2738 46.3699 17.9938C47.0499 18.7138 47.5799 19.5838 47.9599 20.6038C48.3399 21.6238 48.5299 22.7538 48.5299 23.9938ZM43.9699 23.9938C43.9699 22.6138 43.6899 21.5338 43.1299 20.7538C42.5899 19.9538 41.8099 19.5538 40.7899 19.5538C39.7699 19.5538 38.9799 19.9538 38.4199 20.7538C37.8599 21.5338 37.5799 22.6138 37.5799 23.9938C37.5799 25.3738 37.8599 26.4738 38.4199 27.2938C38.9799 28.0938 39.7699 28.4938 40.7899 28.4938C41.8099 28.4938 42.5899 28.0938 43.1299 27.2938C43.6899 26.4738 43.9699 25.3738 43.9699 23.9938ZM57.9626 28.3438C58.6226 28.3438 59.1626 28.2938 59.5826 28.1938C60.0226 28.0738 60.3726 27.9238 60.6326 27.7438C60.8926 27.5438 61.0726 27.3138 61.1726 27.0538C61.2726 26.7938 61.3226 26.5038 61.3226 26.1838C61.3226 25.5038 61.0026 24.9438 60.3626 24.5038C59.7226 24.0438 58.6226 23.5538 57.0626 23.0338C56.3826 22.7938 55.7026 22.5238 55.0226 22.2238C54.3426 21.9038 53.7326 21.5138 53.1926 21.0538C52.6526 20.5738 52.2126 20.0038 51.8726 19.3438C51.5326 18.6638 51.3626 17.8438 51.3626 16.8838C51.3626 15.9238 51.5426 15.0638 51.9026 14.3038C52.2626 13.5238 52.7726 12.8638 53.4326 12.3238C54.0926 11.7838 54.8926 11.3738 55.8326 11.0938C56.7726 10.7938 57.8326 10.6438 59.0126 10.6438C60.4126 10.6438 61.6226 10.7938 62.6426 11.0938C63.6626 11.3938 64.5026 11.7238 65.1626 12.0838L63.8126 15.7738C63.2326 15.4738 62.5826 15.2138 61.8626 14.9938C61.1626 14.7538 60.3126 14.6338 59.3126 14.6338C58.1926 14.6338 57.3826 14.7938 56.8826 15.1138C56.4026 15.4138 56.1626 15.8838 56.1626 16.5238C56.1626 16.9038 56.2526 17.2238 56.4326 17.4838C56.6126 17.7438 56.8626 17.9838 57.1826 18.2038C57.5226 18.4038 57.9026 18.5938 58.3226 18.7738C58.7626 18.9338 59.2426 19.1038 59.7626 19.2838C60.8426 19.6838 61.7826 20.0838 62.5826 20.4838C63.3826 20.8638 64.0426 21.3138 64.5626 21.8338C65.1026 22.3538 65.5026 22.9638 65.7626 23.6638C66.0226 24.3638 66.1526 25.2138 66.1526 26.2138C66.1526 28.1538 65.4726 29.6638 64.1126 30.7438C62.7526 31.8038 60.7026 32.3338 57.9626 32.3338C57.0426 32.3338 56.2126 32.2738 55.4726 32.1538C54.7326 32.0538 54.0726 31.9238 53.4926 31.7638C52.9326 31.6038 52.4426 31.4338 52.0226 31.2538C51.6226 31.0738 51.2826 30.9038 51.0026 30.7438L52.3226 27.0238C52.9426 27.3638 53.7026 27.6738 54.6026 27.9538C55.5226 28.2138 56.6426 28.3438 57.9626 28.3438ZM75.8351 28.7938C76.2751 28.7938 76.6951 28.7838 77.0951 28.7638C77.4951 28.7438 77.8151 28.7138 78.0551 28.6738V25.2838C77.8751 25.2438 77.6051 25.2038 77.2451 25.1638C76.8851 25.1238 76.5551 25.1038 76.2551 25.1038C75.8351 25.1038 75.4351 25.1338 75.0551 25.1938C74.6951 25.2338 74.3751 25.3238 74.0951 25.4638C73.8151 25.6038 73.5951 25.7938 73.4351 26.0338C73.2751 26.2738 73.1951 26.5738 73.1951 26.9338C73.1951 27.6338 73.4251 28.1238 73.8851 28.4038C74.3651 28.6638 75.0151 28.7938 75.8351 28.7938ZM75.4751 15.7138C76.7951 15.7138 77.8951 15.8638 78.7751 16.1638C79.6551 16.4638 80.3551 16.8938 80.8751 17.4538C81.4151 18.0138 81.7951 18.6938 82.0151 19.4938C82.2351 20.2938 82.3451 21.1838 82.3451 22.1638V31.4638C81.7051 31.6038 80.8151 31.7638 79.6751 31.9438C78.5351 32.1438 77.1551 32.2438 75.5351 32.2438C74.5151 32.2438 73.5851 32.1538 72.7451 31.9738C71.9251 31.7938 71.2151 31.5038 70.6151 31.1038C70.0151 30.6838 69.5551 30.1438 69.2351 29.4838C68.9151 28.8238 68.7551 28.0138 68.7551 27.0538C68.7551 26.1338 68.9351 25.3538 69.2951 24.7138C69.6751 24.0738 70.1751 23.5638 70.7951 23.1838C71.4151 22.8038 72.1251 22.5338 72.9251 22.3738C73.7251 22.1938 74.5551 22.1038 75.4151 22.1038C75.9951 22.1038 76.5051 22.1338 76.9451 22.1938C77.4051 22.2338 77.7751 22.2938 78.0551 22.3738V21.9538C78.0551 21.1938 77.8251 20.5838 77.3651 20.1238C76.9051 19.6638 76.1051 19.4338 74.9651 19.4338C74.2051 19.4338 73.4551 19.4938 72.7151 19.6138C71.9751 19.7138 71.3351 19.8638 70.7951 20.0638L70.2251 16.4638C70.4851 16.3838 70.8051 16.3038 71.1851 16.2238C71.5851 16.1238 72.0151 16.0438 72.4751 15.9838C72.9351 15.9038 73.4151 15.8438 73.9151 15.8038C74.4351 15.7438 74.9551 15.7138 75.4751 15.7138ZM92.4171 28.7938C92.8571 28.7938 93.2771 28.7838 93.6771 28.7638C94.0771 28.7438 94.3971 28.7138 94.6371 28.6738V25.2838C94.4571 25.2438 94.1871 25.2038 93.8271 25.1638C93.4671 25.1238 93.1371 25.1038 92.8371 25.1038C92.4171 25.1038 92.0171 25.1338 91.6371 25.1938C91.2771 25.2338 90.9571 25.3238 90.6771 25.4638C90.3971 25.6038 90.1771 25.7938 90.0171 26.0338C89.8571 26.2738 89.7771 26.5738 89.7771 26.9338C89.7771 27.6338 90.0071 28.1238 90.4671 28.4038C90.9471 28.6638 91.5971 28.7938 92.4171 28.7938ZM92.0571 15.7138C93.3771 15.7138 94.4771 15.8638 95.3571 16.1638C96.2371 16.4638 96.9371 16.8938 97.4571 17.4538C97.9971 18.0138 98.3771 18.6938 98.5971 19.4938C98.8171 20.2938 98.9271 21.1838 98.9271 22.1638V31.4638C98.2871 31.6038 97.3971 31.7638 96.2571 31.9438C95.1171 32.1438 93.7371 32.2438 92.1171 32.2438C91.0971 32.2438 90.1671 32.1538 89.3271 31.9738C88.5071 31.7938 87.7971 31.5038 87.1971 31.1038C86.5971 30.6838 86.1371 30.1438 85.8171 29.4838C85.4971 28.8238 85.3371 28.0138 85.3371 27.0538C85.3371 26.1338 85.5171 25.3538 85.8771 24.7138C86.2571 24.0738 86.7571 23.5638 87.3771 23.1838C87.9971 22.8038 88.7071 22.5338 89.5071 22.3738C90.3071 22.1938 91.1371 22.1038 91.9971 22.1038C92.5771 22.1038 93.0871 22.1338 93.5271 22.1938C93.9871 22.2338 94.3571 22.2938 94.6371 22.3738V21.9538C94.6371 21.1938 94.4071 20.5838 93.9471 20.1238C93.4871 19.6638 92.6871 19.4338 91.5471 19.4338C90.7871 19.4338 90.0371 19.4938 89.2971 19.6138C88.5571 19.7138 87.9171 19.8638 87.3771 20.0638L86.8071 16.4638C87.0671 16.3838 87.3871 16.3038 87.7671 16.2238C88.1671 16.1238 88.5971 16.0438 89.0571 15.9838C89.5171 15.9038 89.9971 15.8438 90.4971 15.8038C91.0171 15.7438 91.5371 15.7138 92.0571 15.7138ZM107.499 28.7038C108.319 28.7038 108.899 28.6238 109.239 28.4638C109.579 28.3038 109.749 27.9938 109.749 27.5338C109.749 27.1738 109.529 26.8638 109.089 26.6038C108.649 26.3238 107.979 26.0138 107.079 25.6738C106.379 25.4138 105.739 25.1438 105.159 24.8638C104.599 24.5838 104.119 24.2538 103.719 23.8738C103.319 23.4738 103.009 23.0038 102.789 22.4638C102.569 21.9238 102.459 21.2738 102.459 20.5138C102.459 19.0338 103.009 17.8638 104.109 17.0038C105.209 16.1438 106.719 15.7138 108.639 15.7138C109.599 15.7138 110.519 15.8038 111.399 15.9838C112.279 16.1438 112.979 16.3238 113.499 16.5238L112.719 20.0038C112.199 19.8238 111.629 19.6638 111.009 19.5238C110.409 19.3838 109.729 19.3138 108.969 19.3138C107.569 19.3138 106.869 19.7038 106.869 20.4838C106.869 20.6638 106.899 20.8238 106.959 20.9638C107.019 21.1038 107.139 21.2438 107.319 21.3838C107.499 21.5038 107.739 21.6438 108.039 21.8038C108.359 21.9438 108.759 22.1038 109.239 22.2838C110.219 22.6438 111.029 23.0038 111.669 23.3638C112.309 23.7038 112.809 24.0838 113.169 24.5038C113.549 24.9038 113.809 25.3538 113.949 25.8538C114.109 26.3538 114.189 26.9338 114.189 27.5938C114.189 29.1538 113.599 30.3338 112.419 31.1338C111.259 31.9338 109.609 32.3338 107.469 32.3338C106.069 32.3338 104.899 32.2138 103.959 31.9738C103.039 31.7338 102.399 31.5338 102.039 31.3738L102.789 27.7438C103.549 28.0438 104.329 28.2838 105.129 28.4638C105.929 28.6238 106.719 28.7038 107.499 28.7038Z" fill="#303030"/>
<path d="M286.549 29.9138H281.932L274.21 18.1958V29.9138H269.593V10.8248H274.21L281.932 22.6508V10.8248H286.549V29.9138ZM296.785 14.6588C298.279 14.6588 299.611 14.9738 300.781 15.6038C301.969 16.2158 302.896 17.1068 303.562 18.2768C304.246 19.4468 304.588 20.8148 304.588 22.3808C304.588 23.9468 304.246 25.3148 303.562 26.4848C302.896 27.6548 301.969 28.5548 300.781 29.1848C299.611 29.7968 298.279 30.1028 296.785 30.1028C295.291 30.1028 293.95 29.7968 292.762 29.1848C291.574 28.5548 290.638 27.6548 289.954 26.4848C289.288 25.3148 288.955 23.9468 288.955 22.3808C288.955 20.8148 289.288 19.4468 289.954 18.2768C290.638 17.1068 291.574 16.2158 292.762 15.6038C293.95 14.9738 295.291 14.6588 296.785 14.6588ZM296.785 18.6548C295.903 18.6548 295.156 18.9788 294.544 19.6268C293.95 20.2568 293.653 21.1748 293.653 22.3808C293.653 23.5868 293.95 24.5048 294.544 25.1348C295.156 25.7648 295.903 26.0798 296.785 26.0798C297.667 26.0798 298.405 25.7648 298.999 25.1348C299.593 24.5048 299.89 23.5868 299.89 22.3808C299.89 21.1748 299.593 20.2568 298.999 19.6268C298.405 18.9788 297.667 18.6548 296.785 18.6548ZM305.686 15.1448V10.8248H313.408V29.9138H308.548V15.1448H305.686ZM330.732 10.6358C333.162 10.6358 335.169 11.2748 336.753 12.5528C338.355 13.8308 339.39 15.5588 339.858 17.7368H334.971C334.611 16.8548 334.053 16.1618 333.297 15.6578C332.559 15.1538 331.677 14.9018 330.651 14.9018C329.301 14.9018 328.212 15.3968 327.384 16.3868C326.556 17.3768 326.142 18.6998 326.142 20.3558C326.142 22.0118 326.556 23.3348 327.384 24.3248C328.212 25.2968 329.301 25.7828 330.651 25.7828C331.677 25.7828 332.559 25.5308 333.297 25.0268C334.053 24.5228 334.611 23.8388 334.971 22.9748H339.858C339.39 25.1348 338.355 26.8628 336.753 28.1588C335.169 29.4368 333.162 30.0758 330.732 30.0758C328.878 30.0758 327.249 29.6708 325.845 28.8608C324.441 28.0328 323.352 26.8808 322.578 25.4048C321.822 23.9288 321.444 22.2458 321.444 20.3558C321.444 18.4658 321.822 16.7828 322.578 15.3068C323.352 13.8308 324.441 12.6878 325.845 11.8778C327.249 11.0498 328.878 10.6358 330.732 10.6358ZM342.014 10.6088C342.014 9.90682 342.266 9.33082 342.77 8.88082C343.274 8.41282 343.94 8.17882 344.768 8.17882C345.596 8.17882 346.262 8.41282 346.766 8.88082C347.27 9.33082 347.522 9.90682 347.522 10.6088C347.522 11.2928 347.27 11.8688 346.766 12.3368C346.262 12.7868 345.596 13.0118 344.768 13.0118C343.94 13.0118 343.274 12.7868 342.77 12.3368C342.266 11.8688 342.014 11.2928 342.014 10.6088ZM347.063 14.8478V29.9138H342.446V14.8478H347.063ZM358.782 25.9448V29.9138H356.703C354.939 29.9138 353.562 29.4818 352.572 28.6178C351.6 27.7358 351.114 26.2868 351.114 24.2708V18.7358H349.089V14.8478H351.114V11.1488H355.731V14.8478H358.755V18.7358H355.731V24.3518C355.731 24.9458 355.848 25.3598 356.082 25.5938C356.334 25.8278 356.748 25.9448 357.324 25.9448H358.782ZM364.86 14.8478L368.478 24.0818L371.853 14.8478H376.956L367.56 37.0958H362.484L366.021 29.3468L359.703 14.8478H364.86Z" fill="#303030"/>
<rect x="232" y="5.91382" width="9" height="9" fill="white"/>
<rect x="232" y="14.9138" width="9" height="10" fill="#303030"/>
<rect x="232" y="24.9138" width="9" height="9" fill="#303030"/>
<rect x="241" y="5.91382" width="10" height="9" fill="#303030"/>
<rect x="241" y="24.9138" width="10" height="9" fill="#303030"/>
<rect x="251" y="5.91382" width="9" height="9" fill="#303030"/>
<rect x="251" y="14.9138" width="9" height="10" fill="#303030"/>
<rect x="251" y="24.9138" width="9" height="9" fill="white"/>
<rect x="237" y="10.9138" width="18" height="18" fill="#ECECEC"/>
<path d="M500.92 11.1238C501.28 11.7838 501.69 12.6038 502.15 13.5838C502.63 14.5438 503.12 15.5938 503.62 16.7338C504.14 17.8538 504.65 19.0038 505.15 20.1838C505.65 21.3638 506.12 22.4738 506.56 23.5138C507 22.4738 507.47 21.3638 507.97 20.1838C508.47 19.0038 508.97 17.8538 509.47 16.7338C509.99 15.5938 510.48 14.5438 510.94 13.5838C511.42 12.6038 511.84 11.7838 512.2 11.1238H516.46C516.66 12.5038 516.84 14.0538 517 15.7738C517.18 17.4738 517.33 19.2538 517.45 21.1138C517.59 22.9538 517.71 24.8038 517.81 26.6638C517.93 28.5238 518.03 30.2738 518.11 31.9138H513.55C513.49 29.8938 513.41 27.6938 513.31 25.3138C513.21 22.9338 513.06 20.5338 512.86 18.1138C512.5 18.9538 512.1 19.8838 511.66 20.9038C511.22 21.9238 510.78 22.9438 510.34 23.9638C509.92 24.9838 509.51 25.9638 509.11 26.9038C508.71 27.8238 508.37 28.6138 508.09 29.2738H504.82C504.54 28.6138 504.2 27.8238 503.8 26.9038C503.4 25.9638 502.98 24.9838 502.54 23.9638C502.12 22.9438 501.69 21.9238 501.25 20.9038C500.81 19.8838 500.41 18.9538 500.05 18.1138C499.85 20.5338 499.7 22.9338 499.6 25.3138C499.5 27.6938 499.42 29.8938 499.36 31.9138H494.8C494.88 30.2738 494.97 28.5238 495.07 26.6638C495.19 24.8038 495.31 22.9538 495.43 21.1138C495.57 19.2538 495.72 17.4738 495.88 15.7738C496.06 14.0538 496.25 12.5038 496.45 11.1238H500.92ZM528.054 28.7938C528.494 28.7938 528.914 28.7838 529.314 28.7638C529.714 28.7438 530.034 28.7138 530.274 28.6738V25.2838C530.094 25.2438 529.824 25.2038 529.464 25.1638C529.104 25.1238 528.774 25.1038 528.474 25.1038C528.054 25.1038 527.654 25.1338 527.274 25.1938C526.914 25.2338 526.594 25.3238 526.314 25.4638C526.034 25.6038 525.814 25.7938 525.654 26.0338C525.494 26.2738 525.414 26.5738 525.414 26.9338C525.414 27.6338 525.644 28.1238 526.104 28.4038C526.584 28.6638 527.234 28.7938 528.054 28.7938ZM527.694 15.7138C529.014 15.7138 530.114 15.8638 530.994 16.1638C531.874 16.4638 532.574 16.8938 533.094 17.4538C533.634 18.0138 534.014 18.6938 534.234 19.4938C534.454 20.2938 534.564 21.1838 534.564 22.1638V31.4638C533.924 31.6038 533.034 31.7638 531.894 31.9438C530.754 32.1438 529.374 32.2438 527.754 32.2438C526.734 32.2438 525.804 32.1538 524.964 31.9738C524.144 31.7938 523.434 31.5038 522.834 31.1038C522.234 30.6838 521.774 30.1438 521.454 29.4838C521.134 28.8238 520.974 28.0138 520.974 27.0538C520.974 26.1338 521.154 25.3538 521.514 24.7138C521.894 24.0738 522.394 23.5638 523.014 23.1838C523.634 22.8038 524.344 22.5338 525.144 22.3738C525.944 22.1938 526.774 22.1038 527.634 22.1038C528.214 22.1038 528.724 22.1338 529.164 22.1938C529.624 22.2338 529.994 22.2938 530.274 22.3738V21.9538C530.274 21.1938 530.044 20.5838 529.584 20.1238C529.124 19.6638 528.324 19.4338 527.184 19.4338C526.424 19.4338 525.674 19.4938 524.934 19.6138C524.194 19.7138 523.554 19.8638 523.014 20.0638L522.444 16.4638C522.704 16.3838 523.024 16.3038 523.404 16.2238C523.804 16.1238 524.234 16.0438 524.694 15.9838C525.154 15.9038 525.634 15.8438 526.134 15.8038C526.654 15.7438 527.174 15.7138 527.694 15.7138ZM538.456 12.2038L542.926 11.4838V16.1338H548.296V19.8538H542.926V25.4038C542.926 26.3438 543.086 27.0938 543.406 27.6538C543.746 28.2138 544.416 28.4938 545.416 28.4938C545.896 28.4938 546.386 28.4538 546.886 28.3738C547.406 28.2738 547.876 28.1438 548.296 27.9838L548.926 31.4638C548.386 31.6838 547.786 31.8738 547.126 32.0338C546.466 32.1938 545.656 32.2738 544.696 32.2738C543.476 32.2738 542.466 32.1138 541.666 31.7938C540.866 31.4538 540.226 30.9938 539.746 30.4138C539.266 29.8138 538.926 29.0938 538.726 28.2538C538.546 27.4138 538.456 26.4838 538.456 25.4638V12.2038ZM557.38 28.7938C557.82 28.7938 558.24 28.7838 558.64 28.7638C559.04 28.7438 559.36 28.7138 559.6 28.6738V25.2838C559.42 25.2438 559.15 25.2038 558.79 25.1638C558.43 25.1238 558.1 25.1038 557.8 25.1038C557.38 25.1038 556.98 25.1338 556.6 25.1938C556.24 25.2338 555.92 25.3238 555.64 25.4638C555.36 25.6038 555.14 25.7938 554.98 26.0338C554.82 26.2738 554.74 26.5738 554.74 26.9338C554.74 27.6338 554.97 28.1238 555.43 28.4038C555.91 28.6638 556.56 28.7938 557.38 28.7938ZM557.02 15.7138C558.34 15.7138 559.44 15.8638 560.32 16.1638C561.2 16.4638 561.9 16.8938 562.42 17.4538C562.96 18.0138 563.34 18.6938 563.56 19.4938C563.78 20.2938 563.89 21.1838 563.89 22.1638V31.4638C563.25 31.6038 562.36 31.7638 561.22 31.9438C560.08 32.1438 558.7 32.2438 557.08 32.2438C556.06 32.2438 555.13 32.1538 554.29 31.9738C553.47 31.7938 552.76 31.5038 552.16 31.1038C551.56 30.6838 551.1 30.1438 550.78 29.4838C550.46 28.8238 550.3 28.0138 550.3 27.0538C550.3 26.1338 550.48 25.3538 550.84 24.7138C551.22 24.0738 551.72 23.5638 552.34 23.1838C552.96 22.8038 553.67 22.5338 554.47 22.3738C555.27 22.1938 556.1 22.1038 556.96 22.1038C557.54 22.1038 558.05 22.1338 558.49 22.1938C558.95 22.2338 559.32 22.2938 559.6 22.3738V21.9538C559.6 21.1938 559.37 20.5838 558.91 20.1238C558.45 19.6638 557.65 19.4338 556.51 19.4338C555.75 19.4338 555 19.4938 554.26 19.6138C553.52 19.7138 552.88 19.8638 552.34 20.0638L551.77 16.4638C552.03 16.3838 552.35 16.3038 552.73 16.2238C553.13 16.1238 553.56 16.0438 554.02 15.9838C554.48 15.9038 554.96 15.8438 555.46 15.8038C555.98 15.7438 556.5 15.7138 557.02 15.7138Z" fill="#303030"/>
<path d="M586 33.9138V20.9703L576 11.9138V33.9138H586Z" fill="#303030"/>
<path d="M597.951 33.6V20.8411L588.295 11.9138V33.6H597.951Z" fill="#303030"/>
<path d="M741.323 37.0694H720.228C716.761 37.0694 713.952 34.288 713.952 30.856V9.97162C713.952 6.53962 716.761 3.75818 720.228 3.75818H741.323C744.79 3.75818 747.599 6.53962 747.599 9.97162V30.856C747.599 34.288 744.79 37.0694 741.323 37.0694Z" fill="#303030"/>
<path d="M736.838 20.7203C737.438 21.4651 737.743 22.3326 737.743 23.3131C737.743 24.7557 737.257 25.8871 736.286 26.6886C735.314 27.49 733.924 27.9049 732.114 27.9049H724.209V11.0748H731.924C733.657 11.0748 734.99 11.452 735.933 12.1968C736.876 12.9417 737.352 14.0071 737.352 15.3837C737.352 16.402 737.076 17.2411 736.533 17.92C735.99 18.5988 735.276 19.0326 734.39 19.24C735.428 19.4851 736.238 19.9754 736.838 20.7203ZM728.314 17.9577H731.009C732.438 17.9577 733.152 17.3543 733.152 16.1474C733.152 14.9406 732.419 14.3371 730.962 14.3371H728.314V17.9577ZM733.533 22.7474C733.533 22.144 733.333 21.6726 732.933 21.3331C732.533 20.9937 731.962 20.824 731.228 20.824H728.324V24.6049H731.257C732.771 24.5954 733.533 23.9826 733.533 22.7474Z" fill="white"/>
<path d="M767.095 27.9049L763.419 21.55H762.486V27.9049H758.371V11.0748H765.391C766.733 11.0748 767.876 11.3011 768.8 11.7631C769.733 12.2251 770.429 12.8568 770.895 13.6583C771.362 14.4597 771.591 15.3743 771.591 16.4114C771.591 17.6371 771.248 18.6743 770.571 19.5323C769.886 20.3903 768.905 20.9749 767.6 21.2954L771.638 27.9143H767.095V27.9049ZM762.486 18.7686H765.029C765.848 18.7686 766.448 18.5894 766.829 18.2311C767.21 17.8728 767.41 17.3448 767.41 16.6471C767.41 15.9777 767.21 15.4591 766.819 15.0725C766.429 14.6954 765.829 14.4974 765.029 14.4974H762.486V18.7686Z" fill="#303030"/>
<path d="M790.2 24.8407H783.829L782.772 27.9144H778.448L784.676 11.2069H789.41L795.638 27.9144H791.267L790.2 24.8407ZM789.143 21.7386L787.029 15.5535L784.886 21.7386H789.143Z" fill="#303030"/>
<path d="M818.334 27.9049H814.219L807.343 17.5711V27.9049H803.229V11.0748H807.343L814.219 21.5028V11.0748H818.334V27.9049Z" fill="#303030"/>
<path d="M841.401 23.8505C840.687 25.1234 839.658 26.1228 838.325 26.8394C836.982 27.556 835.411 27.9143 833.601 27.9143H827.182V11.0842H833.601C835.43 11.0842 837.011 11.4331 838.334 12.1308C839.668 12.8285 840.687 13.8091 841.401 15.0819C842.115 16.3548 842.468 17.8068 842.468 19.4662C842.468 21.1068 842.106 22.5683 841.401 23.8505ZM836.973 23.002C837.858 22.1628 838.306 20.9748 838.306 19.4568C838.306 17.9294 837.858 16.7508 836.973 15.9117C836.087 15.0725 834.839 14.6482 833.23 14.6482H831.287V24.2654H833.23C834.839 24.2654 836.087 23.8505 836.973 23.002Z" fill="#303030"/>
<path d="M958.468 32.4451C961.525 33.7111 964.641 34.6894 967.815 35.4375C970.966 36.2202 974.174 36.7727 977.383 37.1179C978.987 37.3366 980.603 37.3596 982.196 37.5093C983.812 37.5208 985.416 37.6474 987.021 37.5553L989.427 37.4978C990.23 37.4863 991.032 37.3827 991.834 37.3366C992.636 37.2676 993.438 37.233 994.229 37.1295L996.612 36.7957C999.809 36.4504 1002.91 35.7138 1006.01 34.8275C1009.13 33.9758 1012.09 32.8479 1015.21 31.6739C1018.41 30.5114 1021.88 29.7518 1025.39 30.1201C1027.12 30.3388 1028.86 30.8913 1030.28 31.9041C1031.71 32.9054 1032.73 34.3326 1033.38 35.8289C1032.41 34.4938 1031.19 33.4003 1029.78 32.7213C1028.37 32.0422 1026.83 31.766 1025.29 31.812C1022.19 31.8581 1019.13 32.8824 1016.26 34.1715C1013.34 35.5987 1010.18 36.8878 1006.99 37.9581C1003.79 38.9825 1000.47 39.7997 997.112 40.214C990.427 41.0888 983.58 41.1003 976.976 39.7767C973.663 39.1782 970.431 38.2459 967.303 37.0604C964.199 35.8289 961.165 34.3902 958.468 32.4451Z" fill="#303030"/>
<path d="M963.024 22V9.09894H958.778V6.73823H969.857V9.09894H965.612V22H963.024ZM971.779 22L969.48 19.7014V13.489L971.779 11.1697H976.749L979.047 13.489V17.5064H971.986V19.0388L972.897 19.9499H978.861V22H971.779ZM971.986 15.5805H976.542V14.0274L975.63 13.1163H972.897L971.986 14.0274V15.5805ZM984.034 22L981.735 19.7014V13.489L984.034 11.1697H989.211L991.281 13.1991V15.2285H988.776V14.0274L987.865 13.1163H985.152L984.241 14.0274V19.0388L985.152 19.9499H991.199V22H984.034ZM993.772 22V6.73823H996.278V12.7642L997.873 11.1697H1001.74L1004.04 13.489V22H1001.54V14.0688L1000.67 13.1163H998.494L996.278 15.3113V22H993.772ZM1012.06 22V6.73823H1014.64V12.8678H1021.33V6.73823H1023.92V22H1021.33V15.1457H1014.64V22H1012.06ZM1029.23 22L1026.93 19.7014V13.489L1029.23 11.1697H1034.66L1036.96 13.489V19.7014L1034.66 22H1029.23ZM1030.35 20.0742L1033.54 20.0535L1034.45 19.1423V14.0274L1033.54 13.1163H1030.35L1029.44 14.0274V19.1423L1030.35 20.0742ZM1042.05 22L1039.76 19.7014V11.1697H1042.26V19.1009L1043.13 20.0535H1045.22L1047.42 17.8998V11.1697H1049.92V22H1047.42V20.4469L1045.84 22H1042.05ZM1053.17 22V19.9499H1058.84L1059.67 19.1009V18.3968L1058.7 17.4235H1054.68L1052.57 15.3527V13.2612L1054.64 11.1697H1061.02V13.2198H1055.88L1055.07 14.0274V14.5037L1056.01 15.4356H1060.07L1062.18 17.5064V19.9292L1060.11 22H1053.17ZM1066.76 22L1064.47 19.7014V13.489L1066.76 11.1697H1071.73L1074.03 13.489V17.5064H1066.97V19.0388L1067.88 19.9499H1073.85V22H1066.76ZM1066.97 15.5805H1071.53V14.0274L1070.62 13.1163H1067.88L1066.97 14.0274V15.5805Z" fill="#303030"/>
<path d="M131.162 126.848C130.022 126.848 128.882 126.808 127.742 126.728C126.622 126.668 125.452 126.508 124.232 126.248V106.088C125.192 105.908 126.242 105.778 127.382 105.698C128.522 105.598 129.582 105.548 130.562 105.548C131.882 105.548 133.092 105.648 134.192 105.848C135.312 106.028 136.272 106.348 137.072 106.808C137.872 107.268 138.492 107.878 138.932 108.638C139.392 109.378 139.622 110.298 139.622 111.398C139.622 113.058 138.822 114.368 137.222 115.328C138.542 115.828 139.442 116.508 139.922 117.368C140.402 118.228 140.642 119.198 140.642 120.278C140.642 122.458 139.842 124.098 138.242 125.198C136.662 126.298 134.302 126.848 131.162 126.848ZM128.792 117.518V122.888C129.132 122.928 129.502 122.958 129.902 122.978C130.302 122.998 130.742 123.008 131.222 123.008C132.622 123.008 133.752 122.808 134.612 122.408C135.472 122.008 135.902 121.268 135.902 120.188C135.902 119.228 135.542 118.548 134.822 118.148C134.102 117.728 133.072 117.518 131.732 117.518H128.792ZM128.792 113.948H131.072C132.512 113.948 133.542 113.768 134.162 113.408C134.782 113.028 135.092 112.428 135.092 111.608C135.092 110.768 134.772 110.178 134.132 109.838C133.492 109.498 132.552 109.328 131.312 109.328C130.912 109.328 130.482 109.338 130.022 109.358C129.562 109.358 129.152 109.378 128.792 109.418V113.948ZM148.558 126.578H144.088V110.798H148.558V126.578ZM148.978 106.238C148.978 107.058 148.708 107.708 148.168 108.188C147.648 108.648 147.028 108.878 146.308 108.878C145.588 108.878 144.958 108.648 144.418 108.188C143.898 107.708 143.638 107.058 143.638 106.238C143.638 105.418 143.898 104.778 144.418 104.318C144.958 103.838 145.588 103.598 146.308 103.598C147.028 103.598 147.648 103.838 148.168 104.318C148.708 104.778 148.978 105.418 148.978 106.238ZM152.61 106.868L157.08 106.148V110.798H162.45V114.518H157.08V120.068C157.08 121.008 157.24 121.758 157.56 122.318C157.9 122.878 158.57 123.158 159.57 123.158C160.05 123.158 160.54 123.118 161.04 123.038C161.56 122.938 162.03 122.808 162.45 122.648L163.08 126.128C162.54 126.348 161.94 126.538 161.28 126.698C160.62 126.858 159.81 126.938 158.85 126.938C157.63 126.938 156.62 126.778 155.82 126.458C155.02 126.118 154.38 125.658 153.9 125.078C153.42 124.478 153.08 123.758 152.88 122.918C152.7 122.078 152.61 121.148 152.61 120.128V106.868Z" fill="#303030"/>
<path d="M203.962 123.458C204.402 123.458 204.822 123.448 205.222 123.428C205.622 123.408 205.942 123.378 206.182 123.338V119.948C206.002 119.908 205.732 119.868 205.372 119.828C205.012 119.788 204.682 119.768 204.382 119.768C203.962 119.768 203.562 119.798 203.182 119.858C202.822 119.898 202.502 119.988 202.222 120.128C201.942 120.268 201.722 120.458 201.562 120.698C201.402 120.938 201.322 121.238 201.322 121.598C201.322 122.298 201.552 122.788 202.012 123.068C202.492 123.328 203.142 123.458 203.962 123.458ZM203.602 110.378C204.922 110.378 206.022 110.528 206.902 110.828C207.782 111.128 208.482 111.558 209.002 112.118C209.542 112.678 209.922 113.358 210.142 114.158C210.362 114.958 210.472 115.848 210.472 116.828V126.128C209.832 126.268 208.942 126.428 207.802 126.608C206.662 126.808 205.282 126.908 203.662 126.908C202.642 126.908 201.712 126.818 200.872 126.638C200.052 126.458 199.342 126.168 198.742 125.768C198.142 125.348 197.682 124.808 197.362 124.148C197.042 123.488 196.882 122.678 196.882 121.718C196.882 120.798 197.062 120.018 197.422 119.378C197.802 118.738 198.302 118.228 198.922 117.848C199.542 117.468 200.252 117.198 201.052 117.038C201.852 116.858 202.682 116.768 203.542 116.768C204.122 116.768 204.632 116.798 205.072 116.858C205.532 116.898 205.902 116.958 206.182 117.038V116.618C206.182 115.858 205.952 115.248 205.492 114.788C205.032 114.328 204.232 114.098 203.092 114.098C202.332 114.098 201.582 114.158 200.842 114.278C200.102 114.378 199.462 114.528 198.922 114.728L198.352 111.128C198.612 111.048 198.932 110.968 199.312 110.888C199.712 110.788 200.142 110.708 200.602 110.648C201.062 110.568 201.542 110.508 202.042 110.468C202.562 110.408 203.082 110.378 203.602 110.378ZM220.784 115.598L223.904 110.798H228.524L223.124 118.388C224.324 119.888 225.414 121.348 226.394 122.768C227.374 124.188 228.154 125.458 228.734 126.578H223.934C223.774 126.278 223.574 125.908 223.334 125.468C223.094 125.008 222.824 124.538 222.524 124.058C222.224 123.558 221.904 123.068 221.564 122.588C221.244 122.088 220.924 121.638 220.604 121.238C220.304 121.618 219.994 122.038 219.674 122.498C219.374 122.958 219.084 123.428 218.804 123.908C218.524 124.368 218.244 124.828 217.964 125.288C217.704 125.748 217.474 126.178 217.274 126.578H212.714C212.954 126.078 213.284 125.488 213.704 124.808C214.124 124.128 214.574 123.428 215.054 122.708C215.554 121.968 216.074 121.238 216.614 120.518C217.154 119.778 217.684 119.088 218.204 118.448C217.304 117.188 216.404 115.918 215.504 114.638C214.604 113.338 213.714 112.058 212.834 110.798H217.664L220.784 115.598Z" fill="#303030"/>
<path d="M174.332 106.578L177.267 107.189L179.916 108.965L182.017 111.73L183.367 115.215L183.832 119.078L183.367 122.94L182.017 126.425L179.916 129.19L177.267 130.966L174.332 131.578L171.396 130.966L168.748 129.19L166.646 126.425L165.297 122.94L164.832 119.078L165.297 115.215L166.646 111.73L168.748 108.965L171.396 107.189L174.332 106.578Z" fill="#303030"/>
<path d="M184.332 106.578L187.267 107.189L189.916 108.965L192.017 111.73L193.367 115.215L193.832 119.078L193.367 122.94L192.017 126.425L189.916 129.19L187.267 130.966L184.332 131.578L181.396 130.966L178.748 129.19L176.646 126.425L175.297 122.94L174.832 119.078L175.297 115.215L176.646 111.73L178.748 108.965L181.396 107.189L184.332 106.578Z" fill="#303030"/>
<path d="M396.596 114.106C396.658 113.508 396.688 112.823 396.688 112.049C396.688 110.819 396.623 109.289 396.491 107.461C398.134 107.514 400.916 107.54 404.836 107.54C408.756 107.54 411.529 107.514 413.155 107.461C413.023 109.289 412.957 110.819 412.957 112.049C412.957 112.823 412.988 113.508 413.049 114.106H412.43C412.131 112.603 411.766 111.416 411.335 110.546C410.905 109.667 410.386 109.039 409.78 108.661C409.182 108.274 408.453 108.081 407.591 108.081H406.972V123.506C406.972 124.253 407.046 124.798 407.196 125.141C407.354 125.483 407.626 125.716 408.013 125.839C408.409 125.962 409.024 126.028 409.859 126.037V126.578C407.591 126.525 405.882 126.498 404.73 126.498C403.597 126.498 401.949 126.525 399.787 126.578V126.037C400.63 126.028 401.246 125.962 401.632 125.839C402.028 125.716 402.3 125.483 402.45 125.141C402.599 124.798 402.674 124.253 402.674 123.506V108.081H402.081C401.21 108.081 400.472 108.27 399.866 108.648C399.268 109.026 398.754 109.654 398.323 110.533C397.893 111.403 397.523 112.594 397.216 114.106H396.596ZM421.263 115.187C421.263 114.44 421.083 113.851 420.722 113.42C420.371 112.99 419.817 112.774 419.061 112.774C418.709 112.774 418.358 112.831 418.006 112.946C417.655 113.051 417.365 113.214 417.136 113.433C417.637 113.6 418.028 113.864 418.31 114.224C418.591 114.576 418.731 115.02 418.731 115.556C418.731 115.925 418.639 116.259 418.455 116.558C418.279 116.848 418.024 117.081 417.69 117.257C417.356 117.424 416.974 117.507 416.543 117.507C415.963 117.507 415.497 117.309 415.146 116.914C414.803 116.518 414.631 116.022 414.631 115.424C414.631 114.493 415.132 113.737 416.134 113.157C417.233 112.55 418.604 112.247 420.248 112.247C422.093 112.247 423.407 112.651 424.189 113.46C424.567 113.838 424.822 114.308 424.954 114.87C425.086 115.433 425.152 116.22 425.152 117.23V124.574C425.152 125.013 425.191 125.325 425.271 125.51C425.358 125.685 425.508 125.773 425.719 125.773C426.009 125.773 426.343 125.62 426.721 125.312L426.998 125.773C426.584 126.116 426.136 126.367 425.653 126.525C425.169 126.683 424.589 126.762 423.913 126.762C422.999 126.762 422.339 126.56 421.935 126.156C421.531 125.751 421.329 125.224 421.329 124.574C420.889 125.303 420.313 125.852 419.602 126.222C418.89 126.582 418.129 126.762 417.321 126.762C416.292 126.762 415.466 126.494 414.842 125.958C414.227 125.413 413.919 124.657 413.919 123.69C413.919 122.75 414.227 121.972 414.842 121.357C415.458 120.742 416.411 120.197 417.703 119.722C417.844 119.669 418.301 119.498 419.074 119.208C419.848 118.909 420.406 118.606 420.749 118.298C421.091 117.991 421.263 117.652 421.263 117.283V115.187ZM421.263 118.391C421.148 118.584 420.959 118.786 420.696 118.997C420.441 119.199 420.072 119.45 419.588 119.748C419.017 120.144 418.569 120.592 418.244 121.093C417.918 121.585 417.756 122.201 417.756 122.939C417.756 123.642 417.91 124.169 418.217 124.521C418.525 124.864 418.929 125.035 419.43 125.035C420.142 125.035 420.753 124.666 421.263 123.928V118.391ZM433.405 114.831C433.748 114.066 434.24 113.447 434.881 112.972C435.532 112.489 436.266 112.247 437.083 112.247C437.628 112.247 438.085 112.366 438.454 112.603C438.823 112.84 439.096 113.148 439.271 113.526C439.447 113.895 439.535 114.295 439.535 114.725C439.535 115.393 439.342 115.938 438.955 116.36C438.568 116.782 438.059 116.993 437.426 116.993C436.811 116.993 436.323 116.839 435.962 116.532C435.611 116.215 435.435 115.793 435.435 115.266C435.435 114.405 435.831 113.702 436.622 113.157C436.507 113.13 436.397 113.117 436.292 113.117C436.169 113.117 436.028 113.139 435.87 113.183C435.413 113.253 434.996 113.473 434.618 113.842C434.24 114.203 433.941 114.638 433.721 115.147C433.51 115.657 433.405 116.154 433.405 116.637V123.796C433.405 124.631 433.607 125.211 434.011 125.536C434.416 125.852 435.062 126.011 435.949 126.011V126.578C433.699 126.507 432.267 126.472 431.651 126.472C431.08 126.472 429.792 126.507 427.789 126.578V126.011C428.219 126.011 428.558 125.953 428.804 125.839C429.059 125.725 429.239 125.527 429.344 125.246C429.458 124.965 429.516 124.574 429.516 124.073V115.556C429.516 114.721 429.388 114.119 429.133 113.75C428.878 113.372 428.43 113.183 427.789 113.183V112.616C428.36 112.669 428.918 112.695 429.463 112.695C431.054 112.695 432.368 112.572 433.405 112.326V114.831ZM450.438 123.123C451.519 123.123 452.394 123.352 453.062 123.809C453.738 124.257 454.077 124.991 454.077 126.011C454.077 126.933 453.787 127.826 453.207 128.687C452.626 129.557 451.748 130.269 450.57 130.823C449.392 131.376 447.955 131.653 446.259 131.653C444.94 131.653 443.833 131.548 442.937 131.337C442.049 131.135 441.385 130.858 440.946 130.506C440.506 130.155 440.287 129.755 440.287 129.307C440.287 128.823 440.467 128.463 440.827 128.225C441.196 127.988 441.794 127.738 442.62 127.474C443.446 127.21 444.031 126.955 444.374 126.709H443.741C442.994 126.709 442.304 126.529 441.671 126.169C441.038 125.808 440.722 125.154 440.722 124.204C440.722 123.686 440.827 123.22 441.038 122.807C441.258 122.385 441.614 121.985 442.106 121.607C442.607 121.221 443.279 120.825 444.123 120.421C443.2 120.104 442.479 119.625 441.961 118.984C441.442 118.333 441.183 117.516 441.183 116.532C441.183 115.108 441.71 114.04 442.765 113.328C443.829 112.607 445.235 112.247 446.984 112.247C447.705 112.247 448.373 112.308 448.988 112.432C448.961 111.974 448.997 111.522 449.093 111.074C449.181 110.327 449.436 109.729 449.858 109.281C450.28 108.824 450.877 108.595 451.651 108.595C452.222 108.595 452.692 108.749 453.062 109.057C453.439 109.355 453.628 109.751 453.628 110.243C453.628 110.7 453.448 111.078 453.088 111.377C452.736 111.667 452.292 111.812 451.756 111.812C451.211 111.812 450.785 111.684 450.478 111.43C450.17 111.175 449.933 110.797 449.766 110.296C449.572 110.621 449.436 111.082 449.357 111.68C449.348 111.768 449.344 111.9 449.344 112.076C449.344 112.269 449.348 112.414 449.357 112.511C450.429 112.783 451.269 113.258 451.875 113.934C452.481 114.602 452.785 115.468 452.785 116.532C452.785 117.49 452.534 118.289 452.033 118.931C451.541 119.573 450.86 120.052 449.99 120.368C449.12 120.676 448.118 120.829 446.984 120.829C446.131 120.829 445.354 120.742 444.65 120.566C444.132 120.865 443.745 121.137 443.49 121.383C443.244 121.629 443.121 121.911 443.121 122.227C443.121 122.825 443.481 123.123 444.202 123.123H450.438ZM446.984 112.722C446.395 112.722 445.947 113.012 445.639 113.592C445.332 114.172 445.178 115.152 445.178 116.532C445.178 117.911 445.332 118.891 445.639 119.472C445.947 120.052 446.395 120.342 446.984 120.342C447.582 120.342 448.03 120.052 448.329 119.472C448.636 118.891 448.79 117.911 448.79 116.532C448.79 115.152 448.636 114.172 448.329 113.592C448.03 113.012 447.582 112.722 446.984 112.722ZM444.888 126.709C444.589 126.991 444.356 127.338 444.189 127.751C444.031 128.164 443.952 128.537 443.952 128.871C443.952 129.619 444.233 130.19 444.795 130.585C445.367 130.99 446.096 131.192 446.984 131.192C447.713 131.192 448.39 131.056 449.014 130.783C449.647 130.519 450.148 130.133 450.517 129.623C450.895 129.113 451.084 128.52 451.084 127.843C451.084 127.456 450.97 127.171 450.741 126.986C450.513 126.802 450.104 126.709 449.515 126.709H444.888ZM459.521 118.232C459.495 118.496 459.482 118.918 459.482 119.498C459.482 120.693 459.649 121.686 459.983 122.477C460.317 123.26 460.748 123.835 461.275 124.204C461.811 124.565 462.382 124.745 462.989 124.745C464.474 124.745 465.665 124.024 466.562 122.583L467.036 122.741C466.808 123.479 466.452 124.169 465.968 124.811C465.494 125.444 464.887 125.962 464.149 126.367C463.419 126.762 462.584 126.96 461.644 126.96C460.405 126.96 459.315 126.696 458.375 126.169C457.443 125.641 456.713 124.842 456.186 123.769C455.667 122.688 455.408 121.348 455.408 119.748C455.408 118.114 455.689 116.738 456.252 115.622C456.814 114.497 457.592 113.653 458.585 113.091C459.579 112.528 460.726 112.247 462.026 112.247C465.41 112.247 467.102 114.242 467.102 118.232H459.521ZM463.701 117.718C463.727 116.312 463.582 115.143 463.266 114.211C462.958 113.28 462.488 112.814 461.855 112.814C461.213 112.814 460.677 113.214 460.247 114.014C459.825 114.805 459.565 116.039 459.469 117.718H463.701ZM477.346 112.642V113.183H474.155V124.073C474.155 124.609 474.252 124.991 474.445 125.22C474.639 125.439 474.938 125.549 475.342 125.549C476.106 125.549 476.717 125.009 477.174 123.928L477.636 124.178C476.959 126.033 475.729 126.96 473.944 126.96C472.758 126.96 471.857 126.652 471.242 126.037C470.864 125.668 470.604 125.202 470.464 124.64C470.332 124.068 470.266 123.282 470.266 122.28V113.183H467.999V112.642H470.266V109.057C471.751 109.057 473.048 108.766 474.155 108.186V112.642H477.346Z" fill="#303030"/>
<rect x="364.832" y="102.578" width="26" height="26" rx="5" fill="#303030"/>
<circle cx="377.832" cy="115.578" r="5" fill="#303030"/>
<path d="M377.832 109.978V108.578M377.832 122.578V121.178M383.432 115.578H384.832M370.832 115.578H372.232M377.832 110.538C376.835 110.538 375.86 110.833 375.031 111.387C374.203 111.941 373.557 112.728 373.175 113.649C372.794 114.57 372.694 115.583 372.888 116.561C373.083 117.538 373.563 118.436 374.268 119.141C374.973 119.846 375.871 120.326 376.848 120.521C377.826 120.715 378.839 120.615 379.76 120.234C380.681 119.852 381.468 119.206 382.022 118.378C382.576 117.549 382.872 116.574 382.872 115.578C382.872 114.241 382.341 112.959 381.395 112.014C380.45 111.069 379.168 110.538 377.832 110.538Z" stroke="white" stroke-width="2" stroke-linecap="square" stroke-linejoin="round"/>
<path d="M612.832 119.457V96.7137H626.362V119.446H612.832V119.457ZM624.722 114.166L625.07 111.654L623.813 111.531L623.431 113.466C622.645 113.855 621.68 114.044 620.523 114.044C618.951 114.044 617.705 113.555 616.795 112.565C615.874 111.576 615.425 110.275 615.425 108.652C615.425 107.074 615.874 105.773 616.761 104.751C617.649 103.728 618.816 103.217 620.265 103.217C621.006 103.217 621.635 103.306 622.14 103.472C622.645 103.639 623.106 103.861 623.543 104.15L623.914 106.062L625.194 105.94L624.823 103.428C624.285 102.972 623.644 102.605 622.903 102.316C622.162 102.038 621.242 101.894 620.152 101.894C618.861 101.894 617.75 102.205 616.818 102.839C615.886 103.472 615.156 104.306 614.639 105.34C614.123 106.385 613.865 107.507 613.865 108.708C613.865 110.609 614.46 112.198 615.65 113.466C616.84 114.733 618.39 115.367 620.31 115.367C622.196 115.367 623.667 114.966 624.722 114.166Z" fill="#303030"/>
<path d="M630.954 119.457V96.7137H636.771V119.446H630.954V119.457ZM631.572 115.166H636.164V114.021H634.581V101.327H631.549V102.472H633.155V114.021H631.572V115.166Z" fill="#303030"/>
<path d="M641.363 119.457V96.7137H651.581V119.446H641.363V119.457ZM643.215 106.896L642.89 108.964L644.069 109.108L644.417 107.563C644.922 107.318 645.495 107.196 646.169 107.196C646.977 107.196 647.527 107.396 647.808 107.796C648.089 108.197 648.223 108.719 648.223 109.364V110.164C647.976 110.142 647.718 110.12 647.437 110.109C647.157 110.098 646.887 110.086 646.618 110.086C645.607 110.086 644.641 110.264 643.743 110.62C642.845 110.976 642.396 111.72 642.396 112.843C642.396 113.799 642.699 114.455 643.317 114.811C643.934 115.178 644.54 115.355 645.136 115.355C645.865 115.355 646.494 115.166 647.011 114.789C647.527 114.411 647.931 113.988 648.223 113.499V113.544C648.246 114.755 648.796 115.355 649.874 115.355C650.289 115.355 650.682 115.255 651.053 115.055L651.03 114.133C650.851 114.21 650.649 114.255 650.424 114.255C649.908 114.255 649.649 113.933 649.649 113.288V109.03C649.649 107.029 648.571 106.029 646.416 106.029C645.82 106.029 645.259 106.096 644.731 106.229C644.192 106.374 643.687 106.596 643.215 106.896ZM648.212 111.809C648.156 112.543 647.853 113.132 647.303 113.555C646.752 113.988 646.169 114.199 645.54 114.199C645.147 114.199 644.765 114.088 644.406 113.877C644.035 113.666 643.855 113.266 643.855 112.688C643.855 111.987 644.136 111.543 644.675 111.331C645.225 111.12 645.832 111.02 646.517 111.02C646.82 111.02 647.112 111.031 647.392 111.065C647.673 111.087 647.954 111.109 648.201 111.12V111.809H648.212Z" fill="#303030"/>
<path d="M656.185 119.457V96.7137H665.471V119.446H656.185V119.457ZM664.494 112.576C664.494 111.865 664.303 111.343 663.921 110.998C663.54 110.653 663.079 110.42 662.518 110.286C661.956 110.153 661.406 110.042 660.856 109.953C660.306 109.864 659.834 109.72 659.453 109.531C659.071 109.342 658.88 109.008 658.88 108.53C658.88 108.074 659.06 107.741 659.43 107.519C659.801 107.296 660.261 107.196 660.834 107.196C661.496 107.196 662.114 107.341 662.686 107.641L662.911 109.086L664.09 108.941L663.865 106.852C663.483 106.618 663.023 106.429 662.473 106.274C661.923 106.118 661.339 106.029 660.71 106.029C659.879 106.029 659.116 106.229 658.408 106.618C657.701 107.007 657.353 107.674 657.353 108.63C657.353 109.331 657.544 109.842 657.925 110.164C658.307 110.498 658.779 110.72 659.351 110.853C659.924 110.987 660.486 111.098 661.047 111.198C661.608 111.287 662.08 111.443 662.462 111.643C662.843 111.843 663.034 112.187 663.034 112.688C663.034 113.199 662.787 113.577 662.293 113.821C661.799 114.066 661.238 114.188 660.598 114.188C659.879 114.188 659.205 114.044 658.588 113.744L658.644 112.554L657.51 112.432L657.229 114.466C657.622 114.722 658.139 114.933 658.768 115.1C659.396 115.266 660.025 115.355 660.665 115.355C661.754 115.355 662.664 115.111 663.394 114.611C664.124 114.133 664.494 113.443 664.494 112.576Z" fill="#303030"/>
<path d="M670.062 119.457V96.7137H679.348V119.446H670.062V119.457ZM678.371 112.576C678.371 111.865 678.18 111.343 677.798 110.998C677.417 110.653 676.956 110.42 676.395 110.286C675.833 110.153 675.283 110.042 674.733 109.953C674.183 109.864 673.711 109.72 673.329 109.531C672.948 109.342 672.757 109.008 672.757 108.53C672.757 108.074 672.936 107.741 673.307 107.519C673.677 107.296 674.138 107.196 674.711 107.196C675.373 107.196 675.991 107.341 676.563 107.641L676.788 109.086L677.967 108.941L677.742 106.852C677.36 106.618 676.9 106.429 676.35 106.274C675.8 106.118 675.216 106.029 674.587 106.029C673.756 106.029 672.993 106.229 672.285 106.618C671.578 107.007 671.23 107.674 671.23 108.63C671.23 109.331 671.421 109.842 671.802 110.164C672.184 110.498 672.656 110.72 673.228 110.853C673.801 110.987 674.362 111.098 674.924 111.198C675.485 111.287 675.957 111.443 676.339 111.643C676.72 111.843 676.911 112.187 676.911 112.688C676.911 113.199 676.664 113.577 676.17 113.821C675.676 114.066 675.115 114.188 674.475 114.188C673.756 114.188 673.082 114.044 672.465 113.744L672.521 112.554L671.387 112.432L671.106 114.466C671.499 114.722 672.016 114.933 672.645 115.1C673.273 115.266 673.902 115.355 674.542 115.355C675.631 115.355 676.541 115.111 677.271 114.611C678 114.133 678.371 113.443 678.371 112.576Z" fill="#303030"/>
<path d="M683.941 119.457V96.7137H690.061V119.446H683.941V119.457ZM684.839 115.166H689.432V114.021H687.849V106.218H684.806V107.363H686.434V114.021H684.851V115.166H684.839ZM686.277 102.072V103.906H687.826V102.072H686.277Z" fill="#303030"/>
<path d="M694.652 119.457V96.7137H704.432V119.446H694.652V119.457ZM703.556 112.154L702.332 111.887C702.063 113.399 701.243 114.155 699.896 114.155C698.997 114.155 698.312 113.855 697.841 113.254C697.369 112.654 697.133 111.809 697.133 110.742C697.133 109.775 697.347 108.953 697.762 108.263C698.178 107.574 698.874 107.241 699.839 107.241C700.58 107.241 701.232 107.407 701.771 107.741L702.119 109.253L703.298 109.108L702.95 106.952C702.489 106.607 702.006 106.363 701.501 106.229C700.996 106.096 700.446 106.029 699.851 106.029C698.447 106.029 697.38 106.518 696.684 107.496C695.977 108.475 695.629 109.586 695.629 110.82C695.629 112.254 695.999 113.377 696.752 114.166C697.493 114.966 698.492 115.367 699.738 115.367C700.985 115.367 701.905 115.022 702.489 114.344C703.073 113.655 703.432 112.932 703.556 112.154Z" fill="#303030"/>
<path d="M618.682 131.874C618.424 132.341 618.042 132.707 617.548 132.963C617.043 133.219 616.448 133.352 615.752 133.352H613.742V127.083H615.752C616.448 127.083 617.054 127.205 617.548 127.461C618.042 127.716 618.424 128.072 618.682 128.55C618.94 129.028 619.064 129.573 619.064 130.217C619.064 130.851 618.94 131.407 618.682 131.874ZM617.571 131.996C618.008 131.574 618.222 130.984 618.222 130.217C618.222 129.45 618.008 128.861 617.571 128.439C617.133 128.016 616.504 127.805 615.673 127.805H614.539V132.63H615.673C616.504 132.63 617.133 132.418 617.571 131.996Z" fill="#303030"/>
<path d="M623.229 127.738V129.884H625.632V130.506H623.229V132.696H625.902V133.352H622.41V127.083H625.902V127.738H623.229Z" fill="#303030"/>
<path d="M632.999 132.552C632.853 132.808 632.639 133.019 632.347 133.174C632.055 133.33 631.696 133.419 631.258 133.419C630.843 133.419 630.461 133.341 630.135 133.197C629.81 133.041 629.551 132.841 629.349 132.574C629.158 132.307 629.046 132.007 629.012 131.674H629.888C629.911 131.852 629.967 132.029 630.068 132.196C630.169 132.363 630.326 132.507 630.517 132.619C630.708 132.73 630.944 132.785 631.224 132.785C631.584 132.785 631.865 132.696 632.055 132.496C632.246 132.296 632.347 132.063 632.347 131.763C632.347 131.507 632.28 131.296 632.145 131.14C632.01 130.984 631.842 130.851 631.651 130.762C631.46 130.673 631.18 130.573 630.843 130.462C630.438 130.329 630.124 130.206 629.877 130.095C629.63 129.984 629.428 129.806 629.26 129.573C629.091 129.339 629.001 129.039 629.001 128.661C629.001 128.339 629.08 128.05 629.237 127.794C629.394 127.55 629.619 127.35 629.922 127.216C630.214 127.083 630.573 127.016 630.966 127.016C631.584 127.016 632.089 127.161 632.448 127.461C632.819 127.761 633.021 128.139 633.088 128.606H632.213C632.168 128.361 632.033 128.139 631.831 127.95C631.617 127.761 631.337 127.661 630.977 127.661C630.652 127.661 630.382 127.75 630.191 127.916C629.989 128.083 629.9 128.328 629.9 128.628C629.9 128.872 629.967 129.073 630.09 129.217C630.225 129.373 630.382 129.484 630.573 129.573C630.764 129.662 631.034 129.751 631.359 129.862C631.763 129.995 632.089 130.117 632.347 130.24C632.594 130.362 632.808 130.54 632.976 130.773C633.145 131.007 633.234 131.329 633.234 131.729C633.212 132.018 633.145 132.296 632.999 132.552Z" fill="#303030"/>
<path d="M637.378 127.083V133.352H636.558V127.083H637.378Z" fill="#303030"/>
<path d="M645.663 127.561C646.168 127.928 646.505 128.417 646.674 129.039H645.809C645.663 128.661 645.405 128.35 645.057 128.128C644.709 127.894 644.293 127.783 643.81 127.783C643.384 127.783 642.991 127.883 642.654 128.083C642.317 128.283 642.048 128.561 641.846 128.928C641.655 129.295 641.554 129.728 641.554 130.229C641.554 130.74 641.655 131.185 641.846 131.551C642.036 131.918 642.317 132.207 642.665 132.407C643.013 132.608 643.417 132.708 643.878 132.708C644.271 132.708 644.619 132.619 644.945 132.463C645.27 132.296 645.528 132.052 645.742 131.74C645.955 131.429 646.067 131.051 646.112 130.629H643.62V130.029H646.797V130.773C646.741 131.274 646.584 131.718 646.326 132.13C646.067 132.541 645.719 132.852 645.281 133.086C644.843 133.319 644.349 133.441 643.788 133.441C643.182 133.441 642.643 133.308 642.171 133.041C641.7 132.774 641.34 132.396 641.082 131.907C640.824 131.429 640.689 130.873 640.689 130.251C640.689 129.628 640.824 129.073 641.082 128.595C641.34 128.117 641.711 127.728 642.171 127.461C642.631 127.194 643.17 127.049 643.777 127.049C644.54 127.027 645.158 127.205 645.663 127.561Z" fill="#303030"/>
<path d="M655.085 133.352H654.265L650.975 128.394V133.352H650.156V127.083H650.975L654.265 132.04V127.083H655.085V133.352Z" fill="#303030"/>
<path d="M666.897 132.552C666.751 132.807 666.538 133.019 666.246 133.174C665.954 133.33 665.595 133.419 665.157 133.419C664.741 133.419 664.36 133.341 664.034 133.197C663.708 133.041 663.45 132.841 663.248 132.574C663.057 132.307 662.945 132.007 662.911 131.674H663.787C663.809 131.851 663.866 132.029 663.967 132.196C664.068 132.363 664.225 132.507 664.416 132.619C664.607 132.73 664.842 132.785 665.123 132.785C665.482 132.785 665.763 132.696 665.954 132.496C666.145 132.296 666.246 132.063 666.246 131.763C666.246 131.507 666.179 131.296 666.044 131.14C665.909 130.984 665.741 130.851 665.55 130.762C665.359 130.673 665.078 130.573 664.741 130.462C664.337 130.329 664.023 130.206 663.776 130.095C663.529 129.984 663.327 129.806 663.158 129.573C662.99 129.339 662.9 129.039 662.9 128.661C662.9 128.339 662.978 128.05 663.136 127.794C663.293 127.55 663.517 127.349 663.821 127.216C664.113 127.083 664.472 127.016 664.865 127.016C665.482 127.016 665.988 127.161 666.347 127.461C666.718 127.761 666.92 128.139 666.987 128.606H666.111C666.066 128.361 665.932 128.139 665.729 127.95C665.516 127.761 665.235 127.661 664.876 127.661C664.55 127.661 664.281 127.75 664.09 127.916C663.888 128.083 663.798 128.328 663.798 128.628C663.798 128.872 663.866 129.072 663.989 129.217C664.124 129.373 664.281 129.484 664.472 129.573C664.663 129.662 664.932 129.751 665.258 129.862C665.662 129.995 665.988 130.117 666.246 130.24C666.493 130.362 666.706 130.54 666.875 130.773C667.043 131.007 667.133 131.329 667.133 131.729C667.11 132.018 667.043 132.296 666.897 132.552Z" fill="#303030"/>
<path d="M674.341 127.083V127.738H672.555V133.352H671.724V127.738H669.939V127.083H674.341Z" fill="#303030"/>
<path d="M678.16 127.083V130.84C678.16 131.451 678.295 131.907 678.575 132.207C678.856 132.496 679.227 132.652 679.721 132.652C680.204 132.652 680.574 132.507 680.844 132.207C681.113 131.907 681.248 131.462 681.248 130.851V127.094H682.067V130.851C682.067 131.707 681.854 132.352 681.427 132.774C681.001 133.208 680.428 133.419 679.709 133.419C679.002 133.419 678.429 133.208 678.003 132.774C677.576 132.341 677.363 131.707 677.363 130.851V127.094H678.16V127.083Z" fill="#303030"/>
<path d="M690.522 131.874C690.264 132.341 689.882 132.707 689.388 132.963C688.883 133.219 688.288 133.352 687.591 133.352H685.582V127.083H687.591C688.288 127.083 688.894 127.205 689.388 127.461C689.882 127.716 690.264 128.072 690.522 128.55C690.78 129.028 690.904 129.573 690.904 130.217C690.904 130.851 690.78 131.407 690.522 131.874ZM689.422 131.996C689.86 131.574 690.073 130.984 690.073 130.217C690.073 129.45 689.86 128.861 689.422 128.439C688.984 128.016 688.355 127.805 687.524 127.805H686.39V132.63H687.524C688.344 132.63 688.984 132.418 689.422 131.996Z" fill="#303030"/>
<path d="M695.079 127.083V133.352H694.259V127.083H695.079Z" fill="#303030"/>
<path d="M703.12 127.416C703.592 127.694 703.962 128.072 704.232 128.561C704.501 129.05 704.636 129.606 704.636 130.218C704.636 130.829 704.501 131.385 704.232 131.874C703.962 132.363 703.592 132.741 703.12 133.019C702.649 133.297 702.121 133.43 701.537 133.43C700.953 133.43 700.414 133.297 699.943 133.019C699.471 132.741 699.089 132.363 698.82 131.874C698.55 131.385 698.416 130.829 698.416 130.218C698.416 129.606 698.55 129.05 698.82 128.561C699.089 128.072 699.46 127.694 699.943 127.416C700.425 127.138 700.953 127.005 701.537 127.005C702.121 127.005 702.649 127.138 703.12 127.416ZM700.358 128.061C700.01 128.261 699.74 128.539 699.55 128.917C699.359 129.284 699.258 129.717 699.258 130.218C699.258 130.707 699.359 131.14 699.55 131.518C699.74 131.896 700.01 132.174 700.358 132.374C700.706 132.574 701.088 132.674 701.526 132.674C701.952 132.674 702.345 132.574 702.694 132.374C703.042 132.174 703.311 131.885 703.502 131.518C703.693 131.151 703.794 130.718 703.794 130.229C703.794 129.728 703.693 129.295 703.502 128.928C703.311 128.561 703.042 128.272 702.694 128.072C702.345 127.872 701.964 127.772 701.526 127.772C701.099 127.761 700.706 127.861 700.358 128.061Z" fill="#303030"/>
<path d="M869.563 97.8275L840.636 111.828V118.828H952.636V83.8275L904.424 105.828L869.563 97.8275Z" fill="url(#paint0_linear_1_499)"/>
<path d="M839.636 111.828L864.703 99.6998C867.538 98.3281 870.753 97.9524 873.828 98.6335L900.088 104.45C902.996 105.094 906.033 104.794 908.759 103.594L953.636 83.8275" stroke="#303030" stroke-linecap="round"/>
<path d="M860.185 140.328H865.824C867.369 140.328 868.606 139.955 869.536 139.21C870.473 138.458 870.941 137.405 870.941 136.052C870.941 135.074 870.712 134.288 870.254 133.693C869.796 133.099 869.211 132.699 868.501 132.494V132.453C869.075 132.254 869.553 131.889 869.936 131.355C870.326 130.822 870.521 130.142 870.521 129.315C870.521 127.982 870.08 126.997 869.198 126.362C868.323 125.719 867.099 125.398 865.527 125.398H860.185V140.328ZM862.902 138.318V133.529H865.681C866.542 133.529 867.174 133.745 867.578 134.175C867.988 134.606 868.193 135.187 868.193 135.918C868.193 136.657 867.988 137.241 867.578 137.672C867.174 138.102 866.542 138.318 865.681 138.318H862.902ZM862.902 131.653V127.428H865.394C866.255 127.428 866.874 127.609 867.25 127.972C867.626 128.327 867.813 128.843 867.813 129.52C867.813 130.19 867.626 130.713 867.25 131.089C866.874 131.465 866.255 131.653 865.394 131.653H862.902ZM873.033 136.39C873.033 137.88 873.361 138.947 874.017 139.589C874.68 140.225 875.542 140.543 876.601 140.543C877.292 140.543 877.91 140.41 878.457 140.143C879.011 139.87 879.452 139.504 879.78 139.046H879.831L879.893 140.328H882.425V129.745H879.749V136.944C879.544 137.381 879.247 137.744 878.857 138.031C878.467 138.318 878.023 138.461 877.524 138.461C876.957 138.461 876.512 138.307 876.191 138C875.87 137.692 875.709 137.159 875.709 136.4V129.745H873.033V136.39ZM885.132 140.328H887.819V129.745H885.132V140.328ZM884.896 126.608C884.896 127.025 885.033 127.377 885.307 127.664C885.58 127.944 885.97 128.084 886.476 128.084C886.988 128.084 887.381 127.944 887.655 127.664C887.928 127.377 888.065 127.025 888.065 126.608C888.065 126.191 887.928 125.842 887.655 125.562C887.381 125.282 886.992 125.141 886.486 125.141C885.973 125.141 885.58 125.282 885.307 125.562C885.033 125.842 884.896 126.191 884.896 126.608ZM890.577 140.328H893.253V124.731H890.577V140.328ZM895.366 135.201C895.366 136.759 895.769 138.037 896.576 139.036C897.389 140.034 898.497 140.533 899.898 140.533C900.595 140.533 901.21 140.389 901.744 140.102C902.277 139.808 902.67 139.446 902.923 139.015H902.964L903.025 140.328H905.548V124.731H902.882V130.894C902.602 130.484 902.209 130.156 901.703 129.91C901.197 129.663 900.592 129.54 899.888 129.54C898.534 129.54 897.44 130.039 896.606 131.037C895.779 132.029 895.366 133.307 895.366 134.872V135.201ZM898.093 135.272V134.79C898.093 133.854 898.298 133.085 898.709 132.483C899.119 131.875 899.737 131.571 900.564 131.571C901.146 131.571 901.631 131.724 902.021 132.032C902.41 132.333 902.694 132.692 902.872 133.109V136.944C902.694 137.361 902.407 137.726 902.01 138.041C901.614 138.349 901.132 138.502 900.564 138.502C899.73 138.502 899.108 138.202 898.698 137.6C898.295 136.992 898.093 136.216 898.093 135.272ZM913.29 135.057C913.29 136.957 913.823 138.359 914.889 139.261C915.962 140.163 917.302 140.615 918.909 140.615C920.508 140.615 921.841 140.163 922.908 139.261C923.974 138.359 924.507 136.957 924.507 135.057V125.398H921.79V135.211C921.79 136.38 921.527 137.217 921.001 137.723C920.474 138.222 919.78 138.472 918.919 138.472C918.051 138.472 917.354 138.222 916.827 137.723C916.308 137.217 916.048 136.38 916.048 135.211V125.398H913.29V135.057ZM927.225 144.624H929.901V139.2C930.188 139.61 930.595 139.934 931.121 140.174C931.654 140.413 932.27 140.533 932.967 140.533C934.3 140.533 935.373 140.044 936.187 139.066C937 138.082 937.407 136.79 937.407 135.19V134.862C937.407 133.256 936.997 131.967 936.176 130.996C935.356 130.019 934.269 129.53 932.916 129.53C932.218 129.53 931.593 129.674 931.039 129.961C930.485 130.241 930.085 130.593 929.839 131.017H929.788L929.727 129.745H927.225V144.624ZM929.901 136.923V133.119C930.079 132.709 930.366 132.35 930.762 132.042C931.166 131.728 931.658 131.571 932.239 131.571C933.073 131.571 933.688 131.861 934.084 132.442C934.481 133.016 934.679 133.789 934.679 134.76V135.293C934.679 136.264 934.481 137.043 934.084 137.631C933.688 138.212 933.076 138.502 932.249 138.502C931.682 138.502 931.189 138.345 930.772 138.031C930.362 137.709 930.072 137.34 929.901 136.923Z" fill="#303030"/>
<defs>
<linearGradient id="paint0_linear_1_499" x1="896.636" y1="83.8275" x2="896.468" y2="118.329" gradientUnits="userSpaceOnUse">
<stop stop-color="#676767"/>
<stop offset="1" stop-color="#ECECEC"/>
</linearGradient>
</defs>
</svg>
