<svg width="1769" height="684" viewBox="0 0 1769 684" fill="none" xmlns="http://www.w3.org/2000/svg">
<path d="M79.6135 8C79.6135 12.4183 83.1953 16 87.6135 16C92.0318 16 95.6135 12.4183 95.6135 8C95.6135 3.58172 92.0318 0 87.6135 0C83.1953 0 79.6135 3.58172 79.6135 8ZM416.957 681.997L416.954 683.497L416.957 681.997ZM1422.11 186.999L1421.98 188.493L1422.11 186.999ZM1703.51 637.997L1720.41 634.203L1708.67 621.464L1703.51 637.997ZM86.2714 7.33018C85.5438 8.78813 84.8171 10.2555 84.0914 11.7322L86.7839 13.0553C87.5068 11.5841 88.2308 10.1223 88.9557 8.66982L86.2714 7.33018ZM79.7516 20.7021C78.3154 23.7171 76.8848 26.7674 75.461 29.8517L78.1848 31.1091C79.6036 28.0357 81.0291 24.9963 82.46 21.9922L79.7516 20.7021ZM71.3628 38.8665C70.0038 41.9021 68.6524 44.9679 67.3097 48.0627L70.0618 49.2568C71.3999 46.1726 72.7467 43.1173 74.1009 40.0923L71.3628 38.8665ZM63.3852 57.2505C62.104 60.2975 60.832 63.3704 59.5703 66.468L62.3486 67.5997C63.6061 64.5125 64.8738 61.45 66.1507 58.4133L63.3852 57.2505ZM55.8169 75.8338C54.6099 78.8954 53.4136 81.9793 52.2291 85.0844L55.032 86.1537C56.2126 83.059 57.4049 79.9854 58.6078 76.9341L55.8169 75.8338ZM48.7116 94.4614C47.5597 97.5849 46.4204 100.728 45.2945 103.89L48.1206 104.897C49.2428 101.745 50.3783 98.6124 51.5263 95.4993L48.7116 94.4614ZM42.0052 113.294C40.9225 116.446 39.8537 119.615 38.7997 122.801L41.6479 123.743C42.6982 120.569 43.7634 117.41 44.8425 114.269L42.0052 113.294ZM35.7145 132.307C34.7078 135.47 33.7163 138.648 32.741 141.84L35.61 142.717C36.582 139.536 37.57 136.369 38.5733 133.217L35.7145 132.307ZM29.8641 151.456C28.9314 154.642 28.0153 157.84 27.1168 161.05L30.0057 161.858C30.901 158.66 31.8138 155.473 32.7432 152.299L29.8641 151.456ZM24.4791 170.695C23.6181 173.919 22.7755 177.155 21.9518 180.4L24.8596 181.138C25.6802 177.905 26.5198 174.682 27.3776 171.469L24.4791 170.695ZM19.5565 190.09C18.7774 193.33 18.0179 196.577 17.2788 199.833L20.2044 200.497C20.9406 197.254 21.6971 194.019 22.4733 190.792L19.5565 190.09ZM15.1256 209.613C14.4309 212.87 13.7573 216.134 13.1056 219.403L16.0477 219.99C16.6967 216.733 17.3676 213.483 18.0596 210.238L15.1256 209.613ZM11.2169 229.229C10.6099 232.509 10.0255 235.794 9.46469 239.083L12.422 239.587C12.9804 236.312 13.5623 233.041 14.1668 229.775L11.2169 229.229ZM7.8539 248.959C7.341 252.254 6.8524 255.553 6.38892 258.854L9.35978 259.271C9.82116 255.985 10.3076 252.701 10.8182 249.42L7.8539 248.959ZM5.0727 268.778C4.6592 272.091 4.27176 275.406 3.91121 278.722L6.89363 279.046C7.25244 275.746 7.63804 272.447 8.04961 269.149L5.0727 268.778ZM2.91102 288.669C2.60382 291.997 2.32455 295.326 2.07404 298.653L5.06557 298.878C5.3148 295.568 5.59266 292.257 5.89833 288.944L2.91102 288.669ZM1.40874 308.644C1.21637 311.972 1.05367 315.298 0.921482 318.621L3.91911 318.74C4.05058 315.436 4.21239 312.128 4.40374 308.817L1.40874 308.644ZM0.615761 328.65C0.545323 331.992 0.50672 335.329 0.500806 338.66L3.5008 338.666C3.50668 335.353 3.54506 332.036 3.61509 328.714L0.615761 328.65ZM0.582212 348.652C0.643183 352.004 0.738331 355.35 0.868538 358.689L3.86626 358.572C3.73688 355.254 3.64231 351.929 3.58172 348.598L0.582212 348.652ZM1.36522 368.682C1.56719 372.018 1.80538 375.346 2.08067 378.665L5.0704 378.417C4.79698 375.121 4.56038 371.815 4.35974 368.501L1.36522 368.682ZM3.02556 388.657C3.37872 391.977 3.77038 395.288 4.20144 398.587L7.17616 398.198C6.74825 394.923 6.3594 391.637 6.00874 388.339L3.02556 388.657ZM5.62378 408.513C6.14036 411.823 6.6981 415.119 7.29794 418.402L10.2491 417.863C9.65396 414.606 9.10053 411.335 8.58788 408.051L5.62378 408.513ZM9.2247 428.209C9.9155 431.492 10.6501 434.759 11.4294 438.011L14.3468 437.312C13.574 434.087 12.8456 430.847 12.1604 427.591L9.2247 428.209ZM13.9043 447.723C14.7761 450.949 15.6938 454.159 16.6585 457.349L19.5301 456.481C18.5742 453.319 17.6646 450.139 16.8004 446.941L13.9043 447.723ZM19.7102 466.915C20.7755 470.084 21.8891 473.234 23.0521 476.363L25.8642 475.318C24.7123 472.219 23.6092 469.099 22.5539 465.959L19.7102 466.915ZM26.6963 485.704C27.9627 488.8 29.2797 491.874 30.6483 494.926L33.3856 493.698C32.0308 490.677 30.7269 487.634 29.4729 484.568L26.6963 485.704ZM34.91 504.01C36.3795 507.008 37.9013 509.981 39.4764 512.93L42.1225 511.516C40.564 508.599 39.058 505.656 37.6038 502.69L34.91 504.01ZM44.3617 521.698C46.04 524.588 47.7724 527.452 49.5597 530.289L52.098 528.689C50.33 525.883 48.6163 523.05 46.9559 520.191L44.3617 521.698ZM55.0483 538.659C56.9327 541.422 58.8722 544.157 60.8678 546.863L63.2823 545.082C61.3086 542.406 59.3904 539.701 57.5267 536.969L55.0483 538.659ZM66.9619 554.815C69.0332 557.417 71.1595 559.99 73.3418 562.533L75.6184 560.579C73.4602 558.064 71.3574 555.52 69.309 552.946L66.9619 554.815ZM80.0573 570.071C82.3028 572.5 84.6027 574.898 86.9579 577.266L89.085 575.151C86.7556 572.809 84.4808 570.436 82.26 568.034L80.0573 570.071ZM94.1568 584.247C96.6097 586.541 99.1181 588.804 101.683 591.034L103.651 588.771C101.114 586.564 98.6325 584.325 96.206 582.056L94.1568 584.247ZM109.273 597.407C111.856 599.501 114.492 601.564 117.182 603.595L118.99 601.2C116.327 599.19 113.718 597.149 111.162 595.077L109.273 597.407ZM125.374 609.563C128.051 611.445 130.779 613.297 133.556 615.118L135.201 612.609C132.45 610.805 129.75 608.972 127.099 607.108L125.374 609.563ZM142.042 620.49C144.911 622.243 147.832 623.965 150.803 625.656L152.287 623.048C149.342 621.373 146.449 619.667 143.606 617.93L142.042 620.49ZM159.437 630.399C162.362 631.951 165.334 633.474 168.354 634.966L169.683 632.276C166.688 630.797 163.742 629.287 160.843 627.749L159.437 630.399ZM177.558 639.352C180.52 640.713 183.525 642.046 186.575 643.35L187.755 640.592C184.729 639.298 181.748 637.975 178.81 636.626L177.558 639.352ZM195.781 647.148C198.894 648.386 202.05 649.596 205.251 650.776L206.289 647.962C203.112 646.79 199.979 645.589 196.89 644.361L195.781 647.148ZM214.7 654.134C217.783 655.188 220.905 656.216 224.067 657.218L224.974 654.359C221.833 653.363 218.732 652.342 215.671 651.295L214.7 654.134ZM233.673 660.146C236.915 661.095 240.197 662.018 243.52 662.913L244.3 660.016C240.998 659.126 237.737 658.21 234.516 657.267L233.673 660.146ZM253.043 665.378C256.218 666.166 259.43 666.93 262.677 667.67L263.343 664.745C260.115 664.01 256.922 663.25 253.766 662.466L253.043 665.378ZM272.527 669.817C275.846 670.508 279.202 671.174 282.594 671.816L283.152 668.868C279.777 668.23 276.439 667.567 273.138 666.88L272.527 669.817ZM292.198 673.547C295.423 674.101 298.679 674.633 301.968 675.142L302.427 672.177C299.154 671.67 295.914 671.141 292.706 670.591L292.198 673.547ZM311.931 676.603C315.285 677.067 318.671 677.509 322.089 677.928L322.455 674.951C319.051 674.534 315.68 674.094 312.343 673.631L311.931 676.603ZM331.864 679.055C335.102 679.404 338.368 679.734 341.663 680.043L341.944 677.056C338.662 676.748 335.41 676.42 332.186 676.072L331.864 679.055ZM351.636 680.91C354.989 681.179 358.371 681.427 361.782 681.655L361.982 678.661C358.584 678.435 355.215 678.187 351.875 677.92L351.636 680.91ZM371.87 682.263C375.095 682.437 378.344 682.592 381.619 682.73L381.745 679.733C378.482 679.595 375.244 679.44 372.032 679.267L371.87 682.263ZM391.521 683.088C394.848 683.189 398.2 683.271 401.578 683.335L401.634 680.336C398.268 680.272 394.927 680.19 391.612 680.089L391.521 683.088ZM411.79 683.471C413.504 683.484 415.226 683.493 416.954 683.497L416.961 680.497C415.238 680.493 413.522 680.484 411.813 680.471L411.79 683.471ZM416.954 683.497C418.67 683.501 420.382 683.501 422.088 683.498L422.082 680.498C420.38 680.501 418.673 680.501 416.961 680.497L416.954 683.497ZM432.266 683.436C435.639 683.401 438.992 683.352 442.325 683.289L442.268 680.289C438.944 680.352 435.599 680.401 432.235 680.436L432.266 683.436ZM452.265 683.058C455.559 682.968 458.833 682.863 462.087 682.745L461.979 679.747C458.733 679.865 455.467 679.969 452.182 680.06L452.265 683.058ZM471.794 682.35C475.112 682.201 478.41 682.036 481.688 681.858L481.525 678.862C478.257 679.04 474.968 679.204 471.659 679.353L471.794 682.35ZM491.844 681.256C495.207 681.04 498.549 680.809 501.869 680.563L501.647 677.572C498.337 677.817 495.005 678.047 491.651 678.262L491.844 681.256ZM511.765 679.781C515.043 679.505 518.299 679.215 521.535 678.91L521.253 675.923C518.028 676.227 514.782 676.517 511.514 676.791L511.765 679.781ZM531.178 677.951C534.547 677.599 537.894 677.23 541.217 676.846L540.873 673.866C537.56 674.249 534.224 674.616 530.866 674.967L531.178 677.951ZM551.257 675.629C554.581 675.207 557.881 674.769 561.158 674.315L560.746 671.344C557.481 671.796 554.192 672.232 550.88 672.653L551.257 675.629ZM570.92 672.907C574.151 672.422 577.36 671.922 580.546 671.406L580.066 668.444C576.892 668.958 573.695 669.457 570.475 669.94L570.92 672.907ZM590.355 669.757C593.704 669.173 597.027 668.572 600.326 667.954L599.774 665.005C596.488 665.621 593.176 666.22 589.84 666.801L590.355 669.757ZM610.148 666.05C613.397 665.399 616.622 664.731 619.822 664.046L619.195 661.113C616.007 661.794 612.795 662.46 609.558 663.109L610.148 666.05ZM629.35 661.945C632.611 661.203 635.846 660.444 639.057 659.669L638.352 656.753C635.155 657.525 631.933 658.281 628.685 659.019L629.35 661.945ZM648.866 657.227C652.109 656.395 655.326 655.546 658.517 654.68L657.731 651.784C654.554 652.647 651.35 653.492 648.121 654.321L648.866 657.227ZM668.013 652.03C671.153 651.13 674.267 650.213 677.356 649.28L676.488 646.408C673.413 647.337 670.312 648.25 667.186 649.146L668.013 652.03ZM687.015 646.282C690.226 645.259 693.409 644.218 696.565 643.159L695.611 640.315C692.47 641.369 689.301 642.405 686.104 643.423L687.015 646.282ZM705.952 639.93C709.054 638.837 712.129 637.726 715.178 636.599L714.138 633.785C711.103 634.907 708.042 636.013 704.955 637.101L705.952 639.93ZM724.474 633.078C727.625 631.857 730.747 630.617 733.841 629.359L732.712 626.58C729.633 627.831 726.525 629.065 723.389 630.281L724.474 633.078ZM743.041 625.534C746.08 624.241 749.091 622.932 752.075 621.605L750.857 618.864C747.887 620.184 744.891 621.487 741.867 622.773L743.041 625.534ZM761.067 617.521C764.132 616.098 767.168 614.658 770.176 613.2L768.867 610.501C765.875 611.951 762.854 613.384 759.804 614.799L761.067 617.521ZM779.114 608.776C782.066 607.285 784.989 605.777 787.886 604.252L786.489 601.597C783.607 603.114 780.698 604.615 777.761 606.099L779.114 608.776ZM796.595 599.576C799.551 597.957 802.479 596.321 805.379 594.669L803.893 592.062C801.008 593.706 798.095 595.334 795.154 596.945L796.595 599.576ZM813.995 589.663C816.839 587.979 819.657 586.278 822.447 584.563L820.876 582.007C818.099 583.714 815.296 585.406 812.466 587.082L813.995 589.663ZM830.864 579.293C833.696 577.487 836.499 575.666 839.276 573.829L837.622 571.327C834.858 573.154 832.068 574.966 829.251 576.763L830.864 579.293ZM847.527 568.277C850.251 566.412 852.948 564.532 855.62 562.639L853.886 560.191C851.227 562.075 848.542 563.946 845.832 565.802L847.527 568.277ZM863.726 556.799C866.424 554.823 869.096 552.832 871.742 550.829L869.932 548.437C867.297 550.431 864.638 552.412 861.953 554.379L863.726 556.799ZM879.606 544.782C882.209 542.749 884.788 540.704 887.342 538.647L885.461 536.31C882.918 538.358 880.351 540.394 877.76 542.418L879.606 544.782ZM895.106 532.301C897.669 530.174 900.209 528.036 902.725 525.888L900.777 523.606C898.271 525.746 895.743 527.875 893.19 529.992L895.106 532.301ZM910.206 519.412C912.708 517.216 915.187 515.011 917.645 512.796L915.636 510.568C913.189 512.774 910.719 514.97 908.228 517.157L910.206 519.412ZM925.019 506.064C927.456 503.812 929.871 501.55 932.266 499.281L930.203 497.104C927.816 499.364 925.41 501.617 922.982 503.862L925.019 506.064ZM939.407 492.437C941.807 490.11 944.188 487.776 946.549 485.435L944.438 483.304C942.084 485.637 939.711 487.964 937.319 490.283L939.407 492.437ZM953.578 478.396C955.902 476.044 958.208 473.687 960.498 471.325L958.343 469.237C956.061 471.592 953.761 473.942 951.444 476.287L953.578 478.396ZM967.402 464.136C969.698 461.725 971.977 459.309 974.241 456.891L972.05 454.841C969.792 457.253 967.519 459.662 965.229 462.068L967.402 464.136ZM980.986 449.63C983.234 447.191 985.468 444.751 987.689 442.309L985.469 440.291C983.253 442.728 981.024 445.163 978.78 447.597L980.986 449.63ZM994.376 434.91C996.592 432.443 998.796 429.977 1000.99 427.511L998.745 425.518C996.557 427.98 994.357 430.443 992.145 432.905L994.376 434.91ZM1007.54 420.103C1009.75 417.6 1011.94 415.099 1014.13 412.6L1011.87 410.625C1009.69 413.121 1007.5 415.619 1005.29 418.12L1007.54 420.103ZM1020.66 405.117C1022.82 402.626 1024.98 400.139 1027.13 397.658L1024.87 395.693C1022.72 398.173 1020.56 400.658 1018.39 403.148L1020.66 405.117ZM1033.67 390.118C1035.84 387.607 1038.01 385.102 1040.17 382.605L1037.9 380.641C1035.74 383.139 1033.57 385.644 1031.4 388.155L1033.67 390.118ZM1046.64 375.137C1048.82 372.625 1051 370.121 1053.17 367.628L1050.91 365.656C1048.74 368.152 1046.56 370.657 1044.38 373.17L1046.64 375.137ZM1059.72 360.145C1061.9 357.662 1064.07 355.19 1066.25 352.73L1064.01 350.741C1061.83 353.205 1059.64 355.68 1057.46 358.167L1059.72 360.145ZM1072.86 345.31C1075.07 342.835 1077.29 340.373 1079.51 337.927L1077.29 335.911C1075.06 338.363 1072.84 340.829 1070.62 343.309L1072.86 345.31ZM1086.18 330.633C1088.43 328.195 1090.68 325.774 1092.94 323.37L1090.75 321.317C1088.49 323.727 1086.23 326.155 1083.98 328.599L1086.18 330.633ZM1099.78 316.163C1102.06 313.779 1104.36 311.415 1106.66 309.071L1104.52 306.969C1102.21 309.322 1099.91 311.695 1097.61 314.087L1099.78 316.163ZM1113.65 302.045C1116 299.709 1118.37 297.395 1120.74 295.105L1118.66 292.945C1116.27 295.245 1113.9 297.569 1111.53 299.915L1113.65 302.045ZM1127.91 288.307C1130.33 286.049 1132.76 283.817 1135.21 281.612L1133.2 279.384C1130.74 281.601 1128.29 283.845 1125.86 286.114L1127.91 288.307ZM1142.63 275.044C1145.12 272.882 1147.63 270.749 1150.16 268.645L1148.24 266.34C1145.69 268.457 1143.17 270.604 1140.67 272.778L1142.63 275.044ZM1157.83 262.394C1160.41 260.335 1163.01 258.308 1165.64 256.314L1163.82 253.925C1161.18 255.934 1158.56 257.975 1155.96 260.048L1157.83 262.394ZM1173.57 250.43C1176.24 248.501 1178.94 246.607 1181.66 244.747L1179.96 242.271C1177.22 244.145 1174.51 246.054 1171.82 247.998L1173.57 250.43ZM1189.89 239.277C1192.66 237.49 1195.45 235.739 1198.28 234.027L1196.72 231.461C1193.88 233.189 1191.05 234.954 1188.26 236.756L1189.89 239.277ZM1206.78 229.04C1209.63 227.418 1212.52 225.836 1215.44 224.293L1214.03 221.641C1211.09 223.198 1208.18 224.795 1205.3 226.431L1206.78 229.04ZM1224.28 219.787C1227.21 218.351 1230.17 216.956 1233.16 215.601L1231.92 212.868C1228.9 214.236 1225.91 215.644 1222.96 217.093L1224.28 219.787ZM1242.21 211.671C1245.26 210.403 1248.35 209.177 1251.47 207.995L1250.41 205.189C1247.26 206.383 1244.14 207.621 1241.06 208.901L1242.21 211.671ZM1260.67 204.673C1263.76 203.611 1266.88 202.592 1270.04 201.615L1269.16 198.749C1265.97 199.735 1262.81 200.764 1259.69 201.836L1260.67 204.673ZM1279.63 198.815C1282.75 197.957 1285.9 197.14 1289.09 196.366L1288.38 193.45C1285.17 194.232 1281.98 195.056 1278.84 195.922L1279.63 198.815ZM1298.68 194.188C1301.91 193.504 1305.18 192.862 1308.49 192.264L1307.95 189.312C1304.62 189.916 1301.32 190.563 1298.06 191.253L1298.68 194.188ZM1318.2 190.649C1321.39 190.165 1324.61 189.72 1327.87 189.315L1327.5 186.338C1324.22 186.746 1320.96 187.195 1317.75 187.683L1318.2 190.649ZM1337.76 188.223C1341.07 187.902 1344.41 187.623 1347.78 187.384L1347.57 184.391C1344.17 184.632 1340.8 184.914 1337.47 185.237L1337.76 188.223ZM1357.42 186.82C1360.67 186.669 1363.95 186.556 1367.27 186.48L1367.2 183.481C1363.86 183.557 1360.56 183.671 1357.29 183.823L1357.42 186.82ZM1377.32 186.369C1380.59 186.37 1383.89 186.407 1387.23 186.481L1387.29 183.482C1383.94 183.408 1380.61 183.37 1377.32 183.369L1377.32 186.369ZM1396.92 186.796C1400.18 186.936 1403.47 187.109 1406.79 187.318L1406.98 184.323C1403.64 184.114 1400.33 183.939 1397.04 183.799L1396.92 186.796ZM1416.87 188.048C1418.56 188.187 1420.26 188.336 1421.98 188.493L1422.25 185.505C1420.53 185.347 1418.82 185.198 1417.11 185.058L1416.87 188.048ZM1421.98 188.493C1423.69 188.65 1425.39 188.812 1427.09 188.979L1427.38 185.993C1425.68 185.826 1423.97 185.663 1422.25 185.505L1421.98 188.493ZM1437.18 190.032C1440.52 190.401 1443.82 190.788 1447.09 191.193L1447.46 188.215C1444.17 187.809 1440.86 187.421 1437.51 187.05L1437.18 190.032ZM1456.81 192.46C1460.14 192.916 1463.44 193.391 1466.7 193.884L1467.15 190.918C1463.87 190.422 1460.56 189.945 1457.22 189.487L1456.81 192.46ZM1476.7 195.469C1480 196.017 1483.26 196.584 1486.5 197.17L1487.03 194.218C1483.79 193.63 1480.51 193.06 1477.19 192.51L1476.7 195.469ZM1496.08 198.984C1499.43 199.644 1502.74 200.324 1506.01 201.025L1506.64 198.092C1503.35 197.387 1500.03 196.704 1496.66 196.041L1496.08 198.984ZM1515.82 203.213C1519.05 203.963 1522.24 204.733 1525.39 205.524L1526.12 202.614C1522.95 201.819 1519.74 201.044 1516.49 200.291L1515.82 203.213ZM1534.98 208.018C1538.27 208.906 1541.52 209.817 1544.73 210.75L1545.57 207.869C1542.34 206.931 1539.07 206.015 1535.76 205.121L1534.98 208.018ZM1554.22 213.613C1557.37 214.597 1560.48 215.603 1563.54 216.631L1564.5 213.786C1561.41 212.752 1558.29 211.74 1555.12 210.749L1554.22 213.613ZM1573.13 219.963C1576.28 221.098 1579.39 222.255 1582.45 223.435L1583.53 220.636C1580.45 219.448 1577.32 218.283 1574.15 217.141L1573.13 219.963ZM1591.54 227.065C1594.7 228.369 1597.8 229.699 1600.86 231.052L1602.08 228.309C1599 226.945 1595.87 225.606 1592.68 224.292L1591.54 227.065ZM1609.88 235.185C1612.88 236.607 1615.83 238.054 1618.73 239.524L1620.09 236.848C1617.16 235.366 1614.19 233.908 1611.16 232.474L1609.88 235.185ZM1627.66 244.213C1630.58 245.801 1633.44 247.413 1636.25 249.05L1637.76 246.457C1634.93 244.806 1632.04 243.179 1629.09 241.577L1627.66 244.213ZM1644.79 254.195C1647.65 255.978 1650.44 257.786 1653.18 259.619L1654.85 257.125C1652.09 255.275 1649.26 253.449 1646.38 251.65L1644.79 254.195ZM1661.23 265.198C1663.99 267.18 1666.69 269.187 1669.32 271.22L1671.16 268.845C1668.5 266.791 1665.77 264.763 1662.98 262.761L1661.23 265.198ZM1677.04 277.39C1679.62 279.534 1682.14 281.703 1684.59 283.896L1686.59 281.659C1684.11 279.442 1681.56 277.249 1678.95 275.082L1677.04 277.39ZM1691.88 290.662C1694.27 292.973 1696.6 295.308 1698.86 297.665L1701.03 295.589C1698.74 293.203 1696.38 290.84 1693.96 288.503L1691.88 290.662ZM1705.63 305.007C1707.83 307.489 1709.95 309.993 1712.01 312.518L1714.34 310.621C1712.25 308.065 1710.1 305.53 1707.88 303.018L1705.63 305.007ZM1718.17 320.399C1720.16 323.048 1722.07 325.717 1723.91 328.405L1726.39 326.709C1724.52 323.987 1722.58 321.284 1720.58 318.602L1718.17 320.399ZM1729.39 336.778C1731.15 339.587 1732.83 342.414 1734.44 345.258L1737.05 343.778C1735.42 340.898 1733.71 338.034 1731.94 335.189L1729.39 336.778ZM1739.18 354.049C1740.68 356.999 1742.12 359.964 1743.49 362.942L1746.21 361.691C1744.83 358.675 1743.38 355.672 1741.85 352.684L1739.18 354.049ZM1747.45 372.096C1748.7 375.164 1749.88 378.242 1750.99 381.329L1753.81 380.314C1752.69 377.188 1751.5 374.07 1750.23 370.963L1747.45 372.096ZM1754.17 390.784C1755.16 393.947 1756.08 397.117 1756.93 400.291L1759.83 399.514C1758.96 396.301 1758.03 393.091 1757.03 389.888L1754.17 390.784ZM1759.31 409.97C1760.04 413.206 1760.7 416.445 1761.29 419.683L1764.24 419.143C1763.64 415.866 1762.97 412.588 1762.24 409.312L1759.31 409.97ZM1762.89 429.513C1763.36 432.801 1763.76 436.086 1764.1 439.365L1767.09 439.057C1766.74 435.739 1766.33 432.416 1765.86 429.09L1762.89 429.513ZM1764.94 449.281C1765.15 452.6 1765.3 455.91 1765.4 459.21L1768.39 459.127C1768.3 455.79 1768.15 452.443 1767.93 449.086L1764.94 449.281ZM1765.49 469.15C1765.46 472.482 1765.37 475.8 1765.22 479.1L1768.22 479.235C1768.37 475.899 1768.46 472.545 1768.49 469.176L1765.49 469.15ZM1764.6 489.004C1764.33 492.335 1764 495.645 1763.62 498.93L1766.6 499.276C1766.99 495.956 1767.32 492.612 1767.59 489.246L1764.6 489.004ZM1762.3 508.754C1761.8 512.064 1761.24 515.346 1760.64 518.595L1763.58 519.148C1764.2 515.865 1764.76 512.549 1765.27 509.204L1762.3 508.754ZM1758.63 528.328C1757.9 531.588 1757.12 534.81 1756.29 537.992L1759.2 538.749C1760.03 535.534 1760.82 532.277 1761.56 528.983L1758.63 528.328ZM1753.61 547.593C1752.65 550.782 1751.65 553.923 1750.6 557.014L1753.44 557.977C1754.5 554.852 1755.52 551.676 1756.48 548.453L1753.61 547.593ZM1747.22 566.424C1746.02 569.559 1744.78 572.634 1743.5 575.643L1746.26 576.819C1747.56 573.774 1748.81 570.664 1750.02 567.492L1747.22 566.424ZM1739.44 584.653C1737.99 587.715 1736.49 590.696 1734.95 593.591L1737.6 594.997C1739.16 592.061 1740.68 589.041 1742.15 585.941L1739.44 584.653ZM1730.1 602.257C1728.38 605.147 1726.64 607.934 1724.85 610.61L1727.35 612.272C1729.16 609.551 1730.94 606.72 1732.68 603.786L1730.1 602.257ZM1719.12 618.709C1717.06 621.434 1714.97 624.01 1712.86 626.43L1715.12 628.402C1717.28 625.926 1719.41 623.295 1721.51 620.517L1719.12 618.709Z" fill="#CFCFCF"/>
</svg>
