<svg width="28" height="29" viewBox="0 0 28 29" fill="none" xmlns="http://www.w3.org/2000/svg">
<path d="M14 0.827637C6.28048 0.827637 0 7.10812 0 14.8276C0 22.5472 6.28048 28.8276 14 28.8276C21.7195 28.8276 28 22.5472 28 14.8276C28 7.10812 21.7195 0.827637 14 0.827637ZM21.2861 10.1356L12.2399 20.9049C12.1407 21.023 12.0172 21.1185 11.8778 21.1848C11.7385 21.2511 11.5865 21.2867 11.4322 21.2892H11.414C11.2631 21.2891 11.1138 21.2573 10.976 21.1959C10.8381 21.1344 10.7147 21.0447 10.6138 20.9324L6.73683 16.6248C6.63837 16.5203 6.56178 16.3973 6.51155 16.2628C6.46133 16.1284 6.43849 15.9852 6.44438 15.8418C6.45027 15.6984 6.48476 15.5576 6.54583 15.4277C6.6069 15.2979 6.69332 15.1815 6.80001 15.0855C6.9067 14.9895 7.0315 14.9158 7.16708 14.8687C7.30267 14.8216 7.44629 14.8021 7.58953 14.8113C7.73276 14.8205 7.8727 14.8582 8.00113 14.9223C8.12957 14.9864 8.2439 15.0755 8.3374 15.1844L11.3858 18.5713L19.637 8.75043C19.8221 8.53644 20.084 8.40388 20.366 8.38141C20.648 8.35894 20.9276 8.44835 21.1442 8.63033C21.3608 8.8123 21.4972 9.07222 21.5237 9.35389C21.5503 9.63557 21.4649 9.91638 21.2861 10.1356Z" fill="#FF492C"/>
</svg>
