<svg width="22" height="22" viewBox="0 0 22 22" fill="none" xmlns="http://www.w3.org/2000/svg">
<path d="M20.2604 0.125H2.10845C1.1166 0.125 0.25 0.83867 0.25 1.81887V20.0111C0.25 20.9967 1.1166 21.8749 2.10845 21.8749H20.2551C21.2523 21.8749 21.9999 20.9909 21.9999 20.0111V1.81887C22.0058 0.83867 21.2523 0.125 20.2604 0.125ZM6.99199 18.2546H3.87612V8.56669H6.99199V18.2546ZM5.54184 7.09372H5.5195C4.52231 7.09372 3.87661 6.3514 3.87661 5.42218C3.87661 4.47596 4.5393 3.75112 5.55883 3.75112C6.57836 3.75112 7.20221 4.47062 7.22454 5.42218C7.22406 6.3514 6.57836 7.09372 5.54184 7.09372ZM18.3796 18.2546H15.2638V12.9575C15.2638 11.6884 14.8103 10.8213 13.683 10.8213C12.8218 10.8213 12.312 11.4039 12.0853 11.9714C12.0003 12.1753 11.9775 12.453 11.9775 12.7366V18.2546H8.86161V8.56669H11.9775V9.9149C12.4309 9.2692 13.1393 8.33997 14.7875 8.33997C16.8329 8.33997 18.3801 9.68817 18.3801 12.5948L18.3796 18.2546Z" fill="#D2D2D2"/>
</svg>
