<svg width="23" height="22" viewBox="0 0 23 22" fill="none" xmlns="http://www.w3.org/2000/svg">
<path d="M16.2868 2.07549C17.5156 2.07902 18.693 2.5503 19.5619 3.38642C20.4308 4.22254 20.9206 5.35554 20.9242 6.53799V15.462C20.9206 16.6445 20.4308 17.7775 19.5619 18.6136C18.693 19.4497 17.5156 19.921 16.2868 19.9245H7.01288C5.78408 19.921 4.60666 19.4497 3.73776 18.6136C2.86887 17.7775 2.3791 16.6445 2.37543 15.462V6.53799C2.3791 5.35554 2.86887 4.22254 3.73776 3.38642C4.60666 2.5503 5.78408 2.07902 7.01288 2.07549H16.2868ZM16.2868 0.290771H7.01288C3.44213 0.290771 0.520752 3.10195 0.520752 6.53799V15.462C0.520752 18.8981 3.44213 21.7092 7.01288 21.7092H16.2868C19.8575 21.7092 22.7789 18.8981 22.7789 15.462V6.53799C22.7789 3.10195 19.8575 0.290771 16.2868 0.290771Z" fill="#D2D2D2"/>
<path d="M17.678 6.53839C17.4028 6.53839 17.1339 6.45988 16.9051 6.31279C16.6763 6.1657 16.498 5.95663 16.3927 5.71202C16.2874 5.46741 16.2599 5.19825 16.3135 4.93858C16.3672 4.67891 16.4997 4.44038 16.6943 4.25317C16.8888 4.06595 17.1367 3.93846 17.4066 3.88681C17.6764 3.83515 17.9561 3.86166 18.2103 3.96298C18.4645 4.0643 18.6818 4.23588 18.8346 4.45602C18.9875 4.67616 19.0691 4.93498 19.0691 5.19974C19.0695 5.37564 19.0338 5.54988 18.964 5.71247C18.8942 5.87505 18.7918 6.02277 18.6625 6.14715C18.5333 6.27154 18.3797 6.37013 18.2108 6.43726C18.0418 6.5044 17.8607 6.53877 17.678 6.53839ZM11.6499 7.43051C12.3836 7.43051 13.1009 7.63988 13.711 8.03215C14.321 8.42442 14.7965 8.98196 15.0773 9.63427C15.3581 10.2866 15.4316 11.0044 15.2884 11.6969C15.1453 12.3894 14.792 13.0255 14.2731 13.5247C13.7543 14.024 13.0933 14.364 12.3736 14.5017C11.654 14.6395 10.9081 14.5688 10.2302 14.2986C9.55228 14.0284 8.97288 13.5708 8.56523 12.9837C8.15759 12.3967 7.94001 11.7065 7.94001 11.0004C7.94106 10.0539 8.33226 9.1465 9.02776 8.47723C9.72327 7.80796 10.6663 7.43152 11.6499 7.43051ZM11.6499 5.6458C10.5493 5.6458 9.47346 5.95984 8.55838 6.54821C7.64329 7.13659 6.93007 7.97286 6.5089 8.95129C6.08774 9.92972 5.97754 11.0064 6.19225 12.0451C6.40696 13.0837 6.93693 14.0378 7.71515 14.7867C8.49336 15.5356 9.48487 16.0455 10.5643 16.2521C11.6437 16.4588 12.7625 16.3527 13.7793 15.9474C14.7961 15.5422 15.6652 14.8558 16.2766 13.9753C16.8881 13.0947 17.2144 12.0595 17.2144 11.0004C17.2144 9.58028 16.6281 8.21832 15.5846 7.21413C14.541 6.20994 13.1257 5.6458 11.6499 5.6458Z" fill="#D2D2D2"/>
</svg>
