<svg width="23" height="18" viewBox="0 0 23 18" fill="none" xmlns="http://www.w3.org/2000/svg">
<path d="M22.25 2.45156C21.4446 2.80126 20.5924 3.03166 19.7204 3.13546C20.6368 2.59923 21.326 1.74735 21.6586 0.739568C20.7922 1.24583 19.8459 1.60105 18.8602 1.79C18.4452 1.35532 17.946 1.00951 17.393 0.773604C16.8401 0.537699 16.2449 0.416622 15.6436 0.417732C13.2093 0.417732 11.2394 2.35769 11.2394 4.7491C11.2376 5.08174 11.2758 5.41339 11.353 5.73696C9.60742 5.65519 7.89816 5.21022 6.33456 4.43051C4.77095 3.65081 3.38743 2.55354 2.27251 1.20891C1.88137 1.86783 1.67451 2.61964 1.67356 3.38577C1.67356 4.88767 2.4577 6.21525 3.64174 6.99301C2.94023 6.97638 2.25309 6.79084 1.63867 6.45215V6.50579C1.63867 8.60666 3.15953 10.3544 5.17245 10.7522C4.79392 10.8531 4.40386 10.9042 4.01211 10.9042C3.73414 10.9047 3.45681 10.8777 3.18414 10.8238C3.74373 12.5447 5.3724 13.7963 7.30166 13.832C5.73399 15.0393 3.80931 15.6918 1.83012 15.687C1.47881 15.6865 1.12782 15.6656 0.778931 15.6245C2.79237 16.9092 5.13283 17.5888 7.52174 17.5823C15.6342 17.5823 20.0662 10.9802 20.0662 5.25421C20.0662 5.06647 20.0613 4.87873 20.0523 4.69547C20.9126 4.084 21.6568 3.32414 22.25 2.45156Z" fill="#D2D2D2"/>
</svg>
