<svg width="26" height="20" viewBox="0 0 26 20" fill="none" xmlns="http://www.w3.org/2000/svg">
<path d="M25.8329 4.69522C25.8329 2.46872 24.1518 0.677625 22.0746 0.677625C19.261 0.549478 16.3915 0.5 13.459 0.5H12.5448C9.61943 0.5 6.74485 0.549478 3.93121 0.67812C1.85908 0.67812 0.178005 2.47911 0.178005 4.70562C0.0510355 6.46653 -0.00279945 8.22794 0.000247809 9.98935C-0.00483096 11.7508 0.0527284 13.5138 0.172926 15.2785C0.172926 17.505 1.854 19.311 3.92613 19.311C6.88198 19.4446 9.914 19.5039 12.9968 19.499C16.0847 19.5089 19.1083 19.4462 22.0675 19.311C24.1447 19.311 25.8258 17.505 25.8258 15.2785C25.9477 13.5122 26.0035 11.7508 25.9984 9.9844C26.01 8.22299 25.9548 6.45993 25.8329 4.69522ZM10.5133 14.8431V5.12073L17.8775 9.97946L10.5133 14.8431Z" fill="#D2D2D2"/>
</svg>
